<svg width="24" height="25" viewBox="0 0 24 25" fill="none" xmlns="http://www.w3.org/2000/svg">
<path d="M20.031 10.0935L12.531 17.5935C12.4614 17.6633 12.3787 17.7186 12.2876 17.7563C12.1966 17.7941 12.099 17.8135 12.0004 17.8135C11.9019 17.8135 11.8043 17.7941 11.7132 17.7563C11.6222 17.7186 11.5394 17.6633 11.4698 17.5935L3.96979 10.0935C3.82906 9.95281 3.75 9.76194 3.75 9.56292C3.75 9.36389 3.82906 9.17302 3.96979 9.03229C4.11052 8.89156 4.30139 8.8125 4.50042 8.8125C4.69944 8.8125 4.89031 8.89156 5.03104 9.03229L12.0004 16.0026L18.9698 9.03229C19.0395 8.96261 19.1222 8.90733 19.2132 8.86962C19.3043 8.83191 19.4019 8.8125 19.5004 8.8125C19.599 8.8125 19.6965 8.83191 19.7876 8.86962C19.8786 8.90733 19.9614 8.96261 20.031 9.03229C20.1007 9.10197 20.156 9.1847 20.1937 9.27574C20.2314 9.36679 20.2508 9.46437 20.2508 9.56292C20.2508 9.66146 20.2314 9.75904 20.1937 9.85009C20.156 9.94113 20.1007 10.0239 20.031 10.0935Z" fill="#989898"/>
</svg>
