<svg xmlns="http://www.w3.org/2000/svg" width="24" height="25" viewBox="0 0 24 25" fill="none">
<path d="M20.031 10.0306L12.531 17.5306C12.4614 17.6003 12.3787 17.6556 12.2876 17.6933C12.1966 17.7311 12.099 17.7505 12.0004 17.7505C11.9019 17.7505 11.8043 17.7311 11.7132 17.6933C11.6222 17.6556 11.5394 17.6003 11.4698 17.5306L3.96979 10.0306C3.82906 9.88982 3.75 9.69895 3.75 9.49993C3.75 9.30091 3.82906 9.11003 3.96979 8.9693C4.11052 8.82857 4.30139 8.74951 4.50042 8.74951C4.69944 8.74951 4.89031 8.82857 5.03104 8.9693L12.0004 15.9396L18.9698 8.9693C19.0395 8.89962 19.1222 8.84435 19.2132 8.80663C19.3043 8.76892 19.4019 8.74951 19.5004 8.74951C19.599 8.74951 19.6965 8.76892 19.7876 8.80663C19.8786 8.84435 19.9614 8.89962 20.031 8.9693C20.1007 9.03899 20.156 9.12171 20.1937 9.21276C20.2314 9.3038 20.2508 9.40138 20.2508 9.49993C20.2508 9.59847 20.2314 9.69606 20.1937 9.7871C20.156 9.87815 20.1007 9.96087 20.031 10.0306Z" fill="#656565"/>
</svg>