<svg xmlns="http://www.w3.org/2000/svg" width="24" height="25" viewBox="0 0 24 25" fill="none">
  <path d="M20.031 16.0307C19.9614 16.1005 19.8787 16.1558 19.7876 16.1935C19.6966 16.2313 19.599 16.2507 19.5004 16.2507C19.4019 16.2507 19.3043 16.2313 19.2132 16.1935C19.1222 16.1558 19.0394 16.1005 18.9698 16.0307L12.0004 9.06041L5.03104 16.0307C4.89031 16.1715 4.69944 16.2505 4.50042 16.2505C4.30139 16.2505 4.11052 16.1715 3.96979 16.0307C3.82906 15.89 3.75 15.6991 3.75 15.5001C3.75 15.3011 3.82906 15.1102 3.96979 14.9695L11.4698 7.46948C11.5394 7.39974 11.6222 7.34443 11.7132 7.30668C11.8043 7.26894 11.9019 7.24951 12.0004 7.24951C12.099 7.24951 12.1966 7.26894 12.2876 7.30668C12.3787 7.34443 12.4614 7.39974 12.531 7.46948L20.031 14.9695C20.1008 15.0391 20.1561 15.1218 20.1938 15.2129C20.2316 15.3039 20.251 15.4015 20.251 15.5001C20.251 15.5987 20.2316 15.6963 20.1938 15.7873C20.1561 15.8784 20.1008 15.9611 20.031 16.0307Z" fill="#292929"/>
</svg>