<svg width="24" height="25" viewBox="0 0 24 25" fill="none" xmlns="http://www.w3.org/2000/svg">
<path d="M16.2806 9.78236C16.3504 9.85202 16.4057 9.93473 16.4434 10.0258C16.4812 10.1168 16.5006 10.2144 16.5006 10.313C16.5006 10.4116 16.4812 10.5091 16.4434 10.6002C16.4057 10.6912 16.3504 10.774 16.2806 10.8436L11.0306 16.0936C10.961 16.1633 10.8783 16.2187 10.7872 16.2564C10.6962 16.2942 10.5986 16.3136 10.5 16.3136C10.4014 16.3136 10.3038 16.2942 10.2128 16.2564C10.1218 16.2187 10.039 16.1633 9.96938 16.0936L7.71938 13.8436C7.57865 13.7029 7.49959 13.512 7.49959 13.313C7.49959 13.114 7.57865 12.9231 7.71938 12.7824C7.86011 12.6416 8.05098 12.5626 8.25 12.5626C8.44903 12.5626 8.6399 12.6416 8.78063 12.7824L10.5 14.5027L15.2194 9.78236C15.289 9.71263 15.3718 9.65731 15.4628 9.61957C15.5538 9.58183 15.6514 9.5624 15.75 9.5624C15.8486 9.5624 15.9462 9.58183 16.0372 9.61957C16.1283 9.65731 16.211 9.71263 16.2806 9.78236ZM21.75 12.563C21.75 14.4914 21.1782 16.3764 20.1068 17.9798C19.0355 19.5832 17.5127 20.8329 15.7312 21.5708C13.9496 22.3088 11.9892 22.5019 10.0979 22.1256C8.20656 21.7494 6.46928 20.8208 5.10571 19.4573C3.74215 18.0937 2.81355 16.3564 2.43735 14.4651C2.06114 12.5738 2.25422 10.6134 2.99218 8.83182C3.73013 7.05024 4.97982 5.5275 6.58319 4.45616C8.18657 3.38482 10.0716 2.81299 12 2.81299C14.585 2.81572 17.0634 3.84382 18.8913 5.67171C20.7192 7.4996 21.7473 9.97797 21.75 12.563ZM20.25 12.563C20.25 10.9313 19.7661 9.33624 18.8596 7.97953C17.9531 6.62283 16.6646 5.56541 15.1571 4.94098C13.6497 4.31656 11.9909 4.15318 10.3905 4.47151C8.79017 4.78984 7.32016 5.57557 6.16637 6.72936C5.01259 7.88314 4.22685 9.35315 3.90853 10.9535C3.5902 12.5538 3.75358 14.2126 4.378 15.7201C5.00242 17.2276 6.05984 18.5161 7.41655 19.4226C8.77326 20.3291 10.3683 20.813 12 20.813C14.1873 20.8105 16.2843 19.9405 17.8309 18.3939C19.3775 16.8472 20.2475 14.7503 20.25 12.563Z" fill="white"/>
</svg>
