<svg width="228" height="36" viewBox="0 0 228 36" fill="none" xmlns="http://www.w3.org/2000/svg">
<path d="M31.5 12.3999V17.9987H15.75V2.25H21.3488V12.3999H31.5Z" fill="#FF7D12"/>
<path d="M31.4999 2.25H25.2578V8.49214H31.4999V2.25Z" fill="#FF7D12"/>
<path d="M10.1512 33.7487H15.75V17.9987H0V23.5988H10.1512V33.7487Z" fill="#FF7D12"/>
<path d="M6.24214 27.508H0V33.7502H6.24214V27.508Z" fill="#FF7D12"/>
<path d="M60.3294 29.0456H42.75V26.0651L53.3132 12.7209H43.2957V8.66898H59.8422V11.6885L49.3569 24.9937H60.3294V29.0456Z" fill="white"/>
<path d="M80.797 18.5066C80.797 18.755 80.7873 18.9936 80.7775 19.2274C80.7629 19.4514 80.7385 19.7485 80.6996 20.1235H64.7572C64.9375 21.2436 65.2932 22.1884 65.8292 22.9676C66.3602 23.7469 67.0229 24.3459 67.8171 24.7598C68.6064 25.1787 69.4737 25.3832 70.4092 25.3832C71.6272 25.3832 72.6163 25.1446 73.3715 24.6624C74.1219 24.1706 74.6773 23.4936 75.0281 22.6365H80.2513C80.0028 23.5618 79.5887 24.4433 79.004 25.2858C78.429 26.1332 77.7274 26.8832 76.8991 27.5456C76.066 28.1982 75.111 28.7095 74.0342 29.0845C72.9525 29.4741 71.7832 29.6689 70.5261 29.6689C68.9913 29.6689 67.5735 29.3865 66.2774 28.8313C64.9911 28.2615 63.8705 27.4823 62.9252 26.4936C61.9897 25.4952 61.254 24.3459 60.7229 23.0456C60.2016 21.7355 59.9434 20.3378 59.9434 18.8573C59.9434 17.367 60.2016 15.9693 60.7229 14.6689C61.254 13.3735 61.9897 12.229 62.9252 11.2404C63.8705 10.242 64.9911 9.46277 66.2774 8.90271C67.5735 8.3329 68.9913 8.04556 70.5261 8.04556C72.056 8.04556 73.4544 8.32803 74.7163 8.88323C75.9734 9.44329 77.055 10.2079 77.9516 11.1819C78.8578 12.1462 79.5594 13.2566 80.0564 14.5131C80.5485 15.7745 80.797 17.104 80.797 18.5066ZM64.9716 16.4222H75.8857C75.8175 15.6576 75.5349 14.9611 75.0281 14.3378C74.5312 13.7047 73.888 13.1982 73.0987 12.8183C72.3045 12.4287 71.4421 12.2339 70.5066 12.2339C69.6881 12.2339 68.9085 12.3848 68.1679 12.6819C67.437 12.9839 66.789 13.4417 66.2189 14.065C65.6586 14.6787 65.2445 15.4628 64.9716 16.4222Z" fill="white"/>
<path d="M86.8217 29.0456H82.0078V8.66894H86.5878V11.8443C86.9776 11.104 87.5136 10.4514 88.2054 9.87673C88.8924 9.30693 89.6915 8.85887 90.6026 8.53258C91.5089 8.21115 92.4931 8.04556 93.5455 8.04556C96.274 8.04556 98.3204 8.91732 99.6847 10.656C101.049 12.3995 101.731 14.8637 101.731 18.0586V29.0456H96.9367V18.156C96.9367 16.1446 96.5079 14.6982 95.6504 13.8118C94.8026 12.9157 93.6625 12.4676 92.2203 12.4676C91.2701 12.4676 90.3882 12.7111 89.5697 13.1884C88.7511 13.6706 88.0885 14.367 87.5818 15.2728C87.0751 16.1836 86.8217 17.3086 86.8217 18.643V29.0456Z" fill="white"/>
<path d="M112.679 29.6689C111.3 29.6689 110.028 29.3865 108.859 28.8313C107.689 28.2761 106.666 27.5017 105.799 26.5131C104.927 25.5147 104.249 24.3654 103.772 23.065C103.304 21.755 103.07 20.3524 103.07 18.8573C103.07 17.367 103.309 15.9693 103.791 14.6689C104.269 13.3735 104.946 12.229 105.818 11.2404C106.686 10.242 107.699 9.46277 108.859 8.90271C110.028 8.3329 111.295 8.04556 112.659 8.04556C114.321 8.04556 115.797 8.41082 117.083 9.13647C118.379 9.85238 119.354 10.8459 120.007 12.117V8.66894H124.567V29.0456H120.007V25.617C119.344 26.893 118.369 27.8865 117.083 28.5975C115.797 29.3085 114.325 29.6689 112.679 29.6689ZM113.828 25.2274C114.657 25.2274 115.436 25.0667 116.167 24.7404C116.893 24.4189 117.531 23.9709 118.077 23.3962C118.623 22.8118 119.042 22.1397 119.344 21.3702C119.656 20.591 119.812 19.7534 119.812 18.8573C119.812 17.9758 119.656 17.1527 119.344 16.3832C119.032 15.604 118.603 14.9222 118.058 14.3378C117.522 13.7534 116.893 13.3004 116.167 12.9741C115.436 12.6527 114.657 12.4871 113.828 12.4871C112.722 12.4871 111.714 12.755 110.808 13.2858C109.911 13.8215 109.19 14.5618 108.644 15.5066C108.099 16.4563 107.826 17.5715 107.826 18.8573C107.826 20.1819 108.099 21.3215 108.644 22.2663C109.2 23.216 109.935 23.9514 110.847 24.4676C111.753 24.9741 112.747 25.2274 113.828 25.2274Z" fill="white"/>
<path d="M132.333 36H127.52V8.66882H132.1V12.0974C132.84 10.8653 133.819 9.88635 135.042 9.15584C136.275 8.43019 137.625 8.06493 139.096 8.06493C140.548 8.06493 141.883 8.35226 143.092 8.92207C144.3 9.48213 145.343 10.2565 146.229 11.2403C147.111 12.2289 147.798 13.3734 148.295 14.6688C148.787 15.9691 149.036 17.3669 149.036 18.8571C149.036 20.3523 148.787 21.7549 148.295 23.0649C147.798 24.3653 147.106 25.5146 146.21 26.513C145.323 27.5016 144.285 28.276 143.092 28.8312C141.893 29.3864 140.582 29.6688 139.155 29.6688C138.151 29.6688 137.211 29.5032 136.329 29.1818C135.442 28.8604 134.653 28.4026 133.951 27.8182C133.249 27.224 132.674 26.5325 132.236 25.7532L132.333 28.1104V36ZM138.278 25.2467C139.354 25.2467 140.348 24.9886 141.26 24.4675C142.166 23.9513 142.897 23.2159 143.442 22.2662C143.988 21.3068 144.261 20.1721 144.261 18.8571C144.261 17.5714 143.988 16.4562 143.442 15.5065C142.906 14.5617 142.185 13.8214 141.279 13.2857C140.368 12.7549 139.359 12.487 138.258 12.487C137.425 12.487 136.645 12.6526 135.919 12.974C135.203 13.3003 134.575 13.7532 134.029 14.3377C133.483 14.9221 133.055 15.599 132.743 16.3636C132.431 17.1331 132.275 17.961 132.275 18.8571C132.275 19.7825 132.431 20.6299 132.743 21.4091C133.064 22.1883 133.503 22.8701 134.048 23.4545C134.604 24.0292 135.247 24.4675 135.978 24.7792C136.704 25.0909 137.469 25.2467 138.278 25.2467Z" fill="white"/>
<path d="M163.073 29.0455H158.922C158.308 29.0455 157.679 28.9968 157.031 28.8896C156.393 28.7728 155.784 28.5682 155.199 28.2663C154.624 27.9546 154.113 27.5163 153.66 26.9416C153.202 26.3572 152.841 25.612 152.568 24.7013C152.295 23.7809 152.159 22.6461 152.159 21.2922V12.7987H147.93V8.66885H152.159V2.70781L156.953 2.66885V8.66885H163.073V12.7987H156.953V21.5065C156.953 22.4708 157.09 23.2111 157.363 23.7273C157.645 24.2338 158.015 24.5844 158.473 24.7792C158.927 24.9643 159.409 25.052 159.916 25.052H163.073V29.0455Z" fill="white"/>
<path d="M166.64 5.49351C165.705 5.49351 164.974 5.23052 164.457 4.69481C163.936 4.16396 163.678 3.51623 163.678 2.74675C163.678 2.00649 163.936 1.36364 164.457 0.818182C164.974 0.272727 165.71 0 166.66 0C167.619 0 168.36 0.272727 168.881 0.818182C169.398 1.36364 169.661 2.00649 169.661 2.74675C169.661 3.51623 169.398 4.16396 168.881 4.69481C168.36 5.23052 167.615 5.49351 166.64 5.49351ZM169.076 29.0455H164.262V8.66883H169.076V29.0455Z" fill="white"/>
<path d="M181.098 29.6689C179.578 29.6689 178.175 29.3865 176.889 28.8313C175.602 28.2615 174.482 27.4823 173.537 26.4936C172.601 25.4952 171.865 24.3459 171.334 23.0456C170.813 21.7355 170.555 20.3378 170.555 18.8573C170.555 17.3767 170.813 15.9887 171.334 14.6884C171.865 13.393 172.601 12.2436 173.537 11.2404C174.482 10.242 175.602 9.46277 176.889 8.90271C178.175 8.3329 179.578 8.04556 181.098 8.04556C182.852 8.04556 184.417 8.39134 185.795 9.07803C187.184 9.75498 188.339 10.6852 189.264 11.8637C190.2 13.0326 190.863 14.367 191.252 15.8573H186.341C185.898 14.7274 185.201 13.8897 184.256 13.3443C183.32 12.7891 182.273 12.5066 181.118 12.5066C180.377 12.5066 179.661 12.6527 178.974 12.9352C178.282 13.2225 177.659 13.6365 177.103 14.1819C176.557 14.7274 176.119 15.3995 175.797 16.1884C175.471 16.9676 175.31 17.8589 175.31 18.8573C175.31 19.8605 175.471 20.7566 175.797 21.5456C176.119 22.3248 176.557 22.9969 177.103 23.5521C177.659 24.0975 178.282 24.5163 178.974 24.7988C179.676 25.0861 180.387 25.2274 181.118 25.2274C182.273 25.2274 183.32 24.9449 184.256 24.3702C185.201 23.7858 185.898 22.8605 186.341 21.5845H191.233C190.882 23.1576 190.239 24.5553 189.303 25.7728C188.368 26.9952 187.199 27.9498 185.795 28.6365C184.402 29.3232 182.838 29.6689 181.098 29.6689Z" fill="white"/>
<path d="M222.726 6.99563C222.73 7.15429 222.775 7.30461 222.862 7.44657C222.952 7.58853 223.071 7.71379 223.219 7.82235C223.37 7.93091 223.545 8.01859 223.742 8.0854C223.943 8.14803 224.154 8.17935 224.376 8.17935C225.012 8.17935 225.486 8.07705 225.797 7.87246C226.113 7.66369 226.271 7.38811 226.271 7.04573C226.271 6.85784 226.222 6.70127 226.124 6.57601C226.029 6.45074 225.896 6.34636 225.723 6.26285C225.551 6.17935 225.342 6.11045 225.096 6.05617C224.85 6.00189 224.575 5.95179 224.271 5.90586C224.029 5.87663 223.772 5.83488 223.502 5.7806C223.235 5.72214 222.989 5.63237 222.763 5.51129C222.542 5.3902 222.357 5.22528 222.209 5.01651C222.066 4.80774 221.994 4.53216 221.994 4.18978C221.994 3.93509 222.039 3.69292 222.129 3.46327C222.224 3.22945 222.373 3.02486 222.579 2.84949C222.788 2.66995 223.059 2.52799 223.391 2.42361C223.723 2.31922 224.127 2.26703 224.603 2.26703C224.964 2.26703 225.289 2.31505 225.576 2.41108C225.867 2.50294 226.115 2.63237 226.32 2.79939C226.526 2.96223 226.684 3.15638 226.794 3.38185C226.905 3.60732 226.961 3.85367 226.961 4.12089H226.013C226.005 3.9664 225.964 3.82444 225.89 3.695C225.816 3.56557 225.713 3.45492 225.582 3.36306C225.455 3.2712 225.303 3.20022 225.126 3.15012C224.95 3.10001 224.755 3.07496 224.542 3.07496C224.25 3.07496 224.002 3.10628 223.797 3.16891C223.592 3.23154 223.426 3.31505 223.299 3.41943C223.171 3.52381 223.079 3.64281 223.022 3.77642C222.964 3.90586 222.935 4.03947 222.935 4.17726C222.935 4.3401 222.974 4.47788 223.052 4.59062C223.13 4.69918 223.245 4.79312 223.397 4.87246C223.553 4.94761 223.746 5.00816 223.976 5.05409C224.205 5.10001 224.474 5.13759 224.782 5.16682C224.962 5.19187 225.149 5.2211 225.342 5.2545C225.535 5.28791 225.721 5.33383 225.902 5.39229C226.087 5.45074 226.261 5.52381 226.425 5.6115C226.589 5.695 226.731 5.80148 226.85 5.93091C226.973 6.05617 227.069 6.20649 227.139 6.38185C227.213 6.55304 227.25 6.75555 227.25 6.98937C227.25 7.31505 227.184 7.60315 227.053 7.85367C226.922 8.10001 226.731 8.30878 226.48 8.47997C226.23 8.65116 225.925 8.7806 225.563 8.86828C225.206 8.95596 224.8 8.99981 224.345 8.99981C223.947 8.99981 223.59 8.93926 223.274 8.81818C222.958 8.70127 222.691 8.54887 222.474 8.36097C222.256 8.16891 222.088 7.95388 221.969 7.71588C221.854 7.47371 221.797 7.23154 221.797 6.98937L222.726 6.99563Z" fill="#BDBDBD"/>
<path d="M221.196 5.63048C221.196 6.09812 221.112 6.53653 220.944 6.94572C220.775 7.35491 220.541 7.7119 220.242 8.0167C219.947 8.3215 219.594 8.56159 219.183 8.73695C218.777 8.91232 218.332 9 217.848 9C217.569 9 217.302 8.9666 217.048 8.89979C216.793 8.83299 216.557 8.74322 216.34 8.63048C216.122 8.51775 215.924 8.38413 215.743 8.22965C215.562 8.07516 215.407 7.91023 215.275 7.73486L215.208 8.81837H214.383V0H215.331V3.49478C215.466 3.31524 215.622 3.15031 215.798 3C215.975 2.84969 216.17 2.72025 216.383 2.61169C216.601 2.50313 216.832 2.41962 217.079 2.36117C217.325 2.29854 217.587 2.26722 217.866 2.26722C218.35 2.26722 218.796 2.35491 219.202 2.53027C219.608 2.70564 219.959 2.94572 220.254 3.25052C220.55 3.55532 220.779 3.91232 220.944 4.3215C221.112 4.72651 221.196 5.16284 221.196 5.63048ZM220.248 5.63048C220.248 5.2714 220.182 4.93946 220.051 4.63466C219.924 4.32568 219.748 4.06054 219.522 3.83925C219.3 3.61378 219.04 3.43841 218.74 3.31315C218.441 3.18372 218.119 3.119 217.774 3.119C217.429 3.119 217.107 3.18372 216.808 3.31315C216.508 3.43841 216.246 3.61378 216.02 3.83925C215.794 4.06054 215.616 4.32568 215.484 4.63466C215.357 4.93946 215.294 5.2714 215.294 5.63048C215.294 5.99374 215.357 6.32985 215.484 6.63883C215.616 6.94363 215.792 7.20877 216.014 7.43424C216.239 7.65971 216.502 7.83507 216.802 7.96033C217.105 8.0856 217.427 8.14823 217.768 8.14823C218.112 8.14823 218.435 8.0856 218.734 7.96033C219.034 7.8309 219.296 7.65553 219.522 7.43424C219.748 7.20877 219.924 6.94363 220.051 6.63883C220.182 6.32985 220.248 5.99374 220.248 5.63048Z" fill="#BDBDBD"/>
<path d="M205.824 5.63029C205.824 5.16264 205.906 4.72632 206.07 4.32131C206.239 3.91212 206.47 3.55513 206.766 3.25033C207.065 2.94553 207.42 2.70544 207.831 2.53008C208.241 2.35471 208.688 2.26703 209.172 2.26703C209.455 2.26703 209.722 2.30043 209.972 2.36724C210.227 2.43404 210.463 2.52381 210.68 2.63655C210.898 2.74928 211.095 2.8829 211.271 3.03738C211.452 3.19187 211.607 3.3568 211.739 3.53216L211.806 2.44239H212.631V8.81818H211.806L211.733 7.73467C211.601 7.91004 211.445 8.07496 211.265 8.22945C211.088 8.37976 210.889 8.51338 210.668 8.63029C210.45 8.74302 210.214 8.8307 209.96 8.89333C209.71 8.96014 209.445 8.99354 209.166 8.99354C208.682 8.99354 208.235 8.90586 207.824 8.73049C207.418 8.55513 207.065 8.31713 206.766 8.01651C206.47 7.71171 206.239 7.35471 206.07 6.94553C205.906 6.53634 205.824 6.09793 205.824 5.63029ZM206.772 5.63029C206.772 5.99354 206.836 6.32966 206.963 6.63864C207.094 6.94344 207.271 7.20857 207.492 7.43404C207.718 7.65534 207.98 7.8307 208.28 7.96014C208.584 8.0854 208.906 8.14803 209.246 8.14803C209.591 8.14803 209.913 8.0854 210.212 7.96014C210.512 7.83488 210.775 7.65951 211 7.43404C211.226 7.20857 211.402 6.94344 211.529 6.63864C211.661 6.32966 211.726 5.99354 211.726 5.63029C211.726 5.2712 211.661 4.93926 211.529 4.63446C211.398 4.32548 211.22 4.06035 210.994 3.83905C210.772 3.61358 210.51 3.43822 210.206 3.31296C209.907 3.18352 209.587 3.1188 209.246 3.1188C208.901 3.1188 208.577 3.18352 208.274 3.31296C207.974 3.43822 207.714 3.61358 207.492 3.83905C207.271 4.06035 207.094 4.32548 206.963 4.63446C206.836 4.93926 206.772 5.2712 206.772 5.63029Z" fill="#BDBDBD"/>
<path d="M200.25 0.300629H201.216V7.94781H205.358V8.81837H200.25V0.300629Z" fill="#BDBDBD"/>
</svg>
