<svg width="54" height="55" viewBox="0 0 54 55" fill="none" xmlns="http://www.w3.org/2000/svg">
<path d="M10.1266 13.563C10.1266 13.1154 10.3044 12.6862 10.6209 12.3697C10.9373 12.0533 11.3665 11.8755 11.8141 11.8755H15.1891V8.50049C15.1891 8.05294 15.3669 7.62371 15.6834 7.30725C15.9998 6.99078 16.429 6.81299 16.8766 6.81299C17.3242 6.81299 17.7534 6.99078 18.0698 7.30725C18.3863 7.62371 18.5641 8.05294 18.5641 8.50049V11.8755H21.9391C22.3867 11.8755 22.8159 12.0533 23.1323 12.3697C23.4488 12.6862 23.6266 13.1154 23.6266 13.563C23.6266 14.0105 23.4488 14.4398 23.1323 14.7562C22.8159 15.0727 22.3867 15.2505 21.9391 15.2505H18.5641V18.6255C18.5641 19.073 18.3863 19.5023 18.0698 19.8187C17.7534 20.1352 17.3242 20.313 16.8766 20.313C16.429 20.313 15.9998 20.1352 15.6834 19.8187C15.3669 19.5023 15.1891 19.073 15.1891 18.6255V15.2505H11.8141C11.3665 15.2505 10.9373 15.0727 10.6209 14.7562C10.3044 14.4398 10.1266 14.0105 10.1266 13.563ZM38.8141 40.563H37.1266V38.8755C37.1266 38.4279 36.9488 37.9987 36.6323 37.6822C36.3159 37.3658 35.8867 37.188 35.4391 37.188C34.9915 37.188 34.5623 37.3658 34.2459 37.6822C33.9294 37.9987 33.7516 38.4279 33.7516 38.8755V40.563H32.0641C31.6165 40.563 31.1873 40.7408 30.8709 41.0572C30.5544 41.3737 30.3766 41.8029 30.3766 42.2505C30.3766 42.698 30.5544 43.1273 30.8709 43.4437C31.1873 43.7602 31.6165 43.938 32.0641 43.938H33.7516V45.6255C33.7516 46.073 33.9294 46.5023 34.2459 46.8187C34.5623 47.1352 34.9915 47.313 35.4391 47.313C35.8867 47.313 36.3159 47.1352 36.6323 46.8187C36.9488 46.5023 37.1266 46.073 37.1266 45.6255V43.938H38.8141C39.2617 43.938 39.6909 43.7602 40.0073 43.4437C40.3238 43.1273 40.5016 42.698 40.5016 42.2505C40.5016 41.8029 40.3238 41.3737 40.0073 41.0572C39.6909 40.7408 39.2617 40.563 38.8141 40.563ZM50.6266 30.438H47.2516V27.063C47.2516 26.6154 47.0738 26.1862 46.7573 25.8697C46.4409 25.5533 46.0117 25.3755 45.5641 25.3755C45.1166 25.3755 44.6873 25.5533 44.3709 25.8697C44.0544 26.1862 43.8766 26.6154 43.8766 27.063V30.438H40.5016C40.0541 30.438 39.6248 30.6158 39.3084 30.9322C38.9919 31.2487 38.8141 31.6779 38.8141 32.1255C38.8141 32.573 38.9919 33.0023 39.3084 33.3187C39.6248 33.6352 40.0541 33.813 40.5016 33.813H43.8766V37.188C43.8766 37.6355 44.0544 38.0648 44.3709 38.3812C44.6873 38.6977 45.1166 38.8755 45.5641 38.8755C46.0117 38.8755 46.4409 38.6977 46.7573 38.3812C47.0738 38.0648 47.2516 37.6355 47.2516 37.188V33.813H50.6266C51.0742 33.813 51.5034 33.6352 51.8198 33.3187C52.1363 33.0023 52.3141 32.573 52.3141 32.1255C52.3141 31.6779 52.1363 31.2487 51.8198 30.9322C51.5034 30.6158 51.0742 30.438 50.6266 30.438ZM46.2623 16.938L16.8766 46.3237C16.2437 46.9561 15.3856 47.3114 14.4909 47.3114C13.5962 47.3114 12.7381 46.9561 12.1052 46.3237L7.73879 41.9615C7.42531 41.6481 7.17664 41.276 7.00698 40.8665C6.83732 40.457 6.75 40.018 6.75 39.5747C6.75 39.1315 6.83732 38.6925 7.00698 38.283C7.17664 37.8735 7.42531 37.5014 7.73879 37.188L37.1266 7.80228C37.44 7.48881 37.8121 7.24014 38.2216 7.07048C38.6311 6.90082 39.0701 6.8135 39.5134 6.8135C39.9566 6.8135 40.3956 6.90082 40.8051 7.07048C41.2146 7.24014 41.5867 7.48881 41.9001 7.80228L46.2623 12.1645C46.5758 12.4779 46.8245 12.85 46.9941 13.2595C47.1638 13.669 47.2511 14.108 47.2511 14.5512C47.2511 14.9945 47.1638 15.4334 46.9941 15.843C46.8245 16.2525 46.5758 16.6246 46.2623 16.938ZM34.7388 23.688L30.3766 19.3237L10.1266 39.5737L14.4888 43.938L34.7388 23.688ZM43.8766 14.5523L39.5123 10.188L32.7623 16.938L37.1266 21.3023L43.8766 14.5523Z" fill="url(#paint0_linear_133_2344)"/>
<defs>
<linearGradient id="paint0_linear_133_2344" x1="52.3141" y1="27.063" x2="6.75" y2="27.063" gradientUnits="userSpaceOnUse">
<stop stop-color="white"/>
<stop offset="1" stop-color="#999999"/>
</linearGradient>
</defs>
</svg>
