<svg width="72" height="72" viewBox="0 0 72 72" fill="none" xmlns="http://www.w3.org/2000/svg">
<g id="magic-wand">
<path id="Vector" d="M13.5021 18C13.5021 17.4033 13.7392 16.831 14.1611 16.409C14.5831 15.9871 15.1554 15.75 15.7521 15.75H20.2521V11.25C20.2521 10.6533 20.4892 10.081 20.9111 9.65901C21.3331 9.23705 21.9054 9 22.5021 9C23.0989 9 23.6712 9.23705 24.0931 9.65901C24.5151 10.081 24.7521 10.6533 24.7521 11.25V15.75H29.2521C29.8489 15.75 30.4212 15.9871 30.8431 16.409C31.2651 16.831 31.5021 17.4033 31.5021 18C31.5021 18.5967 31.2651 19.169 30.8431 19.591C30.4212 20.0129 29.8489 20.25 29.2521 20.25H24.7521V24.75C24.7521 25.3467 24.5151 25.919 24.0931 26.341C23.6712 26.7629 23.0989 27 22.5021 27C21.9054 27 21.3331 26.7629 20.9111 26.341C20.4892 25.919 20.2521 25.3467 20.2521 24.75V20.25H15.7521C15.1554 20.25 14.5831 20.0129 14.1611 19.591C13.7392 19.169 13.5021 18.5967 13.5021 18ZM51.7521 54H49.5021V51.75C49.5021 51.1533 49.2651 50.581 48.8431 50.159C48.4212 49.7371 47.8489 49.5 47.2521 49.5C46.6554 49.5 46.0831 49.7371 45.6611 50.159C45.2392 50.581 45.0021 51.1533 45.0021 51.75V54H42.7521C42.1554 54 41.5831 54.2371 41.1611 54.659C40.7392 55.081 40.5021 55.6533 40.5021 56.25C40.5021 56.8467 40.7392 57.419 41.1611 57.841C41.5831 58.2629 42.1554 58.5 42.7521 58.5H45.0021V60.75C45.0021 61.3467 45.2392 61.919 45.6611 62.341C46.0831 62.7629 46.6554 63 47.2521 63C47.8489 63 48.4212 62.7629 48.8431 62.341C49.2651 61.919 49.5021 61.3467 49.5021 60.75V58.5H51.7521C52.3489 58.5 52.9212 58.2629 53.3431 57.841C53.7651 57.419 54.0021 56.8467 54.0021 56.25C54.0021 55.6533 53.7651 55.081 53.3431 54.659C52.9212 54.2371 52.3489 54 51.7521 54ZM67.5021 40.5H63.0021V36C63.0021 35.4033 62.7651 34.831 62.3431 34.409C61.9212 33.9871 61.3489 33.75 60.7521 33.75C60.1554 33.75 59.5831 33.9871 59.1611 34.409C58.7392 34.831 58.5021 35.4033 58.5021 36V40.5H54.0021C53.4054 40.5 52.8331 40.7371 52.4111 41.159C51.9892 41.581 51.7521 42.1533 51.7521 42.75C51.7521 43.3467 51.9892 43.919 52.4111 44.341C52.8331 44.7629 53.4054 45 54.0021 45H58.5021V49.5C58.5021 50.0967 58.7392 50.669 59.1611 51.091C59.5831 51.5129 60.1554 51.75 60.7521 51.75C61.3489 51.75 61.9212 51.5129 62.3431 51.091C62.7651 50.669 63.0021 50.0967 63.0021 49.5V45H67.5021C68.0989 45 68.6712 44.7629 69.0931 44.341C69.5151 43.919 69.7521 43.3467 69.7521 42.75C69.7521 42.1533 69.5151 41.581 69.0931 41.159C68.6712 40.7371 68.0989 40.5 67.5021 40.5ZM61.6831 22.5L22.5021 61.6809C21.6583 62.5242 20.5142 62.9979 19.3212 62.9979C18.1282 62.9979 16.9841 62.5242 16.1403 61.6809L10.3184 55.8647C9.90041 55.4468 9.56885 54.9507 9.34264 54.4047C9.11643 53.8586 9 53.2734 9 52.6823C9 52.0913 9.11643 51.5061 9.34264 50.96C9.56885 50.414 9.90041 49.9179 10.3184 49.5L49.5021 10.3191C49.92 9.90109 50.4161 9.56953 50.9622 9.34332C51.5082 9.11711 52.0934 9.00068 52.6845 9.00068C53.2755 9.00068 53.8608 9.11711 54.4068 9.34332C54.9528 9.56953 55.4489 9.90109 55.8668 10.3191L61.6831 16.1353C62.101 16.5532 62.4326 17.0493 62.6588 17.5953C62.885 18.1414 63.0015 18.7266 63.0015 19.3177C63.0015 19.9087 62.885 20.4939 62.6588 21.04C62.4326 21.586 62.101 22.0821 61.6831 22.5ZM46.3184 31.5L40.5021 25.6809L13.5021 52.6809L19.3184 58.5L46.3184 31.5ZM58.5021 19.3191L52.6831 13.5L43.6831 22.5L49.5021 28.3191L58.5021 19.3191Z" fill="url(#paint0_linear_176_3711)"/>
</g>
<defs>
<linearGradient id="paint0_linear_176_3711" x1="9" y1="36" x2="69.7521" y2="36" gradientUnits="userSpaceOnUse">
<stop stop-color="#FF8C00"/>
<stop offset="1" stop-color="#FFBE44"/>
</linearGradient>
</defs>
</svg>
