<svg width="54" height="55" viewBox="0 0 54 55" fill="none" xmlns="http://www.w3.org/2000/svg">
<path d="M47.2163 10.0018C47.1663 9.17899 46.8169 8.40293 46.234 7.82004C45.6511 7.23715 44.875 6.88774 44.0522 6.83774C41.3986 6.67954 34.617 6.92212 28.9892 12.5478L27.9872 13.5624H15.6832C15.2383 13.5599 14.7974 13.6459 14.386 13.8154C13.9746 13.9849 13.601 14.2344 13.287 14.5496L6.05183 21.789C5.60812 22.2324 5.29676 22.7907 5.1527 23.4012C5.00865 24.0117 5.03759 24.6503 5.23628 25.2453C5.43498 25.8403 5.79556 26.3682 6.27757 26.7696C6.75957 27.1711 7.34392 27.4302 7.96503 27.5181L16.0798 28.6508L25.4053 37.9763L26.5381 46.0953C26.6252 46.7165 26.8843 47.3009 27.2861 47.7825C27.688 48.2641 28.2165 48.6237 28.812 48.8206C29.1588 48.9365 29.5221 48.9956 29.8878 48.9957C30.3306 48.9965 30.7691 48.9097 31.1782 48.7403C31.5873 48.5709 31.9588 48.3222 32.2714 48.0085L39.5107 40.7734C39.8259 40.4593 40.0755 40.0858 40.245 39.6744C40.4144 39.263 40.5004 38.822 40.4979 38.3771V26.0731L41.5041 25.067C47.1319 19.4391 47.3745 12.6575 47.2163 10.0018ZM15.6832 16.9374H24.6122L16.2739 25.2737L8.43542 24.181L15.6832 16.9374ZM31.3791 14.9441C33.0006 13.3125 34.9516 12.0458 37.1018 11.2284C39.2519 10.4111 41.5518 10.0619 43.8476 10.2043C43.9955 12.5014 43.65 14.8035 42.8342 16.9559C42.0185 19.1084 40.7515 21.0613 39.1184 22.6834L26.9979 34.7996L19.2607 27.0624L31.3791 14.9441ZM37.1229 38.3771L29.8814 45.6249L28.7867 37.7844L37.1229 29.4481V38.3771ZM21.4798 40.381C20.5306 42.4609 17.356 47.3124 8.43542 47.3124C7.98787 47.3124 7.55865 47.1346 7.24218 46.8182C6.92571 46.5017 6.74792 46.0725 6.74792 45.6249C6.74792 36.7044 11.5995 33.5298 13.6793 32.5784C13.881 32.4865 14.0988 32.4351 14.3203 32.4273C14.5418 32.4195 14.7627 32.4555 14.9703 32.533C15.1779 32.6106 15.3682 32.7283 15.5304 32.8794C15.6925 33.0305 15.8233 33.2121 15.9153 33.4138C16.0072 33.6154 16.0586 33.8332 16.0664 34.0547C16.0742 34.2762 16.0383 34.4971 15.9607 34.7047C15.8831 34.9124 15.7654 35.1027 15.6143 35.2648C15.4632 35.4269 15.2816 35.5577 15.08 35.6497C13.7236 36.2677 10.7304 38.2569 10.2031 43.8573C15.8035 43.3299 17.7968 40.3367 18.4107 38.9804C18.5026 38.7787 18.6334 38.5972 18.7955 38.4461C18.9577 38.2949 19.148 38.1772 19.3556 38.0997C19.5633 38.0221 19.7841 37.9862 20.0056 37.994C20.2271 38.0018 20.4449 38.0531 20.6466 38.1451C20.8483 38.2371 21.0298 38.3678 21.1809 38.53C21.3321 38.6921 21.4498 38.8824 21.5273 39.0901C21.6049 39.2977 21.6408 39.5186 21.633 39.7401C21.6252 39.9616 21.5739 40.1794 21.4819 40.381H21.4798Z" fill="url(#paint0_linear_133_2270)"/>
<defs>
<linearGradient id="paint0_linear_133_2270" x1="47.2474" y1="27.9012" x2="5.0625" y2="27.9012" gradientUnits="userSpaceOnUse">
<stop stop-color="white"/>
<stop offset="1" stop-color="#999999"/>
</linearGradient>
</defs>
</svg>
