<svg width="72" height="72" viewBox="0 0 72 72" fill="none" xmlns="http://www.w3.org/2000/svg">
<g id="rocket-launch">
<path id="Vector" d="M62.955 13.2529C62.8884 12.1558 62.4225 11.1211 61.6453 10.3439C60.8681 9.56669 59.8334 9.10081 58.7363 9.03414C55.1982 8.82321 46.156 9.14664 38.6522 16.6476L37.3163 18.0004H20.911C20.3178 17.9971 19.7298 18.1117 19.1813 18.3377C18.6328 18.5636 18.1347 18.8964 17.716 19.3166L8.0691 28.9691C7.47749 29.5604 7.06235 30.3048 6.87027 31.1188C6.67819 31.9328 6.71679 32.7843 6.98171 33.5776C7.24664 34.3709 7.72742 35.0747 8.37009 35.61C9.01276 36.1452 9.79189 36.4908 10.62 36.6079L21.4397 38.1182L33.8738 50.5523L35.3841 61.3776C35.5002 62.2058 35.8457 62.985 36.3815 63.6271C36.9173 64.2692 37.622 64.7487 38.416 65.0113C38.8784 65.1658 39.3628 65.2446 39.8504 65.2448C40.4407 65.2459 41.0255 65.1301 41.571 64.9042C42.1164 64.6783 42.6118 64.3467 43.0285 63.9285L52.681 54.2816C53.1012 53.8629 53.434 53.3648 53.66 52.8163C53.8859 52.2678 54.0006 51.6799 53.9972 51.0866V34.6813L55.3388 33.3398C62.8425 25.836 63.166 16.7938 62.955 13.2529ZM20.911 22.5004H32.8163L21.6985 33.6154L11.2472 32.1585L20.911 22.5004ZM41.8388 19.8426C44.0008 17.6672 46.6022 15.9782 49.469 14.8884C52.3359 13.7986 55.4023 13.3331 58.4635 13.5229C58.6606 16.5856 58.1999 19.6551 57.1123 22.525C56.0247 25.395 54.3354 27.9988 52.1579 30.1616L35.9972 46.3166L25.681 36.0004L41.8388 19.8426ZM49.4972 51.0866L39.8419 60.7504L38.3822 50.2963L49.4972 39.1813V51.0866ZM28.6397 53.7585C27.3741 56.5316 23.1413 63.0004 11.2472 63.0004C10.6505 63.0004 10.0782 62.7633 9.65624 62.3414C9.23428 61.9194 8.99723 61.3471 8.99723 60.7504C8.99723 48.8563 15.466 44.6235 18.2391 43.3551C18.508 43.2325 18.7984 43.164 19.0937 43.1536C19.3891 43.1432 19.6836 43.1911 19.9604 43.2945C20.2372 43.3979 20.491 43.5549 20.7072 43.7564C20.9233 43.9579 21.0977 44.2 21.2204 44.4688C21.343 44.7377 21.4114 45.0281 21.4218 45.3235C21.4322 45.6188 21.3843 45.9133 21.2809 46.1901C21.1775 46.467 21.0206 46.7207 20.8191 46.9369C20.6176 47.1531 20.3755 47.3275 20.1066 47.4501C18.2982 48.2741 14.3072 50.9263 13.6041 58.3935C21.0713 57.6904 23.7291 53.6995 24.5475 51.891C24.6702 51.6221 24.8445 51.38 25.0607 51.1786C25.2769 50.9771 25.5307 50.8201 25.8075 50.7167C26.0843 50.6133 26.3788 50.5654 26.6742 50.5758C26.9695 50.5862 27.2599 50.6546 27.5288 50.7773C27.7977 50.8999 28.0398 51.0743 28.2413 51.2905C28.4427 51.5066 28.5997 51.7604 28.7031 52.0372C28.8065 52.3141 28.8544 52.6086 28.844 52.9039C28.8336 53.1992 28.7652 53.4896 28.6425 53.7585H28.6397Z" fill="url(#paint0_linear_176_4824)"/>
</g>
<defs>
<linearGradient id="paint0_linear_176_4824" x1="62.9965" y1="37.1187" x2="6.75" y2="37.1187" gradientUnits="userSpaceOnUse">
<stop stop-color="#FF8C00"/>
<stop offset="1" stop-color="#FFBE44"/>
</linearGradient>
</defs>
</svg>
