<svg xmlns="http://www.w3.org/2000/svg" width="144" height="144" viewBox="0 0 144 144" fill="none">
  <path d="M97.3147 18.5399L73.3147 30.5399L46.7227 15.1919L54.5827 11.2559L70.7227 3.19189L97.3147 18.5399Z" stroke="url(#paint0_linear_176_3446)" stroke-width="2" stroke-linecap="round" stroke-linejoin="round"/>
  <path d="M120.281 86.1724V89.1724C120.281 89.7724 120.209 90.3244 120.041 90.8884L96.053 102.9H96.041C96.209 102.336 96.281 101.772 96.281 101.172V97.4164C96.281 96.8164 96.2451 96.1684 96.1611 95.4724L108.617 91.8484C109.577 91.5604 114.893 88.9084 120.281 86.1724Z" stroke="url(#paint1_linear_176_3446)" stroke-width="2" stroke-linecap="round" stroke-linejoin="round"/>
  <path d="M99.2445 37.4165L82.1325 45.9725H82.1205L75.2445 49.4165L74.8365 45.4685L74.7765 44.8325L73.3125 30.5405L97.3125 18.5405L98.8365 33.4685L99.2445 37.4165Z" stroke="url(#paint2_linear_176_3446)" stroke-width="2" stroke-linecap="round" stroke-linejoin="round"/>
  <path d="M104.934 44.4482L90.2821 51.7802L80.9341 56.4482C80.0461 55.2002 79.1461 53.9882 78.2221 52.8002C77.2861 51.6122 76.2901 50.4842 75.2461 49.4282L82.1221 45.9842H82.1341L99.2461 37.4282C100.29 38.4842 101.286 39.6122 102.222 40.8002C103.146 41.9882 104.046 43.2002 104.934 44.4482Z" stroke="url(#paint3_linear_176_3446)" stroke-width="2" stroke-linecap="round" stroke-linejoin="round"/>
  <path d="M119.312 45.8158L95.3115 57.8158L95.0835 57.8038L92.7195 57.5758L80.9355 56.4478L90.2835 51.7678L104.936 44.4478L116.72 45.5758L119.312 45.8158Z" stroke="url(#paint4_linear_176_3446)" stroke-width="2" stroke-linecap="round" stroke-linejoin="round"/>
  <path d="M132.617 79.8596C132.617 79.8596 126.413 83.0756 120.281 86.1836C114.893 88.9196 109.577 91.5716 108.617 91.8596L100.817 71.9156L95.6446 58.7036L95.3086 57.8276L119.309 45.8276L132.617 79.8596Z" stroke="url(#paint5_linear_176_3446)" stroke-width="2" stroke-linecap="round" stroke-linejoin="round"/>
  <path d="M132.488 108.913L119.203 127.573L95.2031 139.573L108.499 120.901C108.859 120.793 109.999 120.265 111.607 119.485C118.051 116.365 131.948 109.189 132.488 108.913Z" stroke="url(#paint6_linear_176_3446)" stroke-width="2" stroke-linecap="round" stroke-linejoin="round"/>
  <path d="M132.497 108.9H132.485C131.945 109.188 118.049 116.364 111.605 119.484C109.997 120.264 108.857 120.792 108.497 120.9L103.205 113.256L102.893 112.8L96.0527 102.9L120.041 90.8877L127.205 101.256L132.497 108.9Z" stroke="url(#paint7_linear_176_3446)" stroke-width="2" stroke-linecap="round" stroke-linejoin="round"/>
  <path d="M102.896 112.8L96.0559 102.9H96.0439C96.2119 102.336 96.2839 101.772 96.2839 101.172V97.4162C96.2839 96.8162 96.2479 96.1682 96.1639 95.4722L108.62 91.8482L100.82 71.9042L95.6479 58.6922L95.3119 57.8162L95.0839 57.7922L92.7199 57.5642L80.9359 56.4362C80.0479 55.1882 79.1479 53.9762 78.2239 52.7882C77.2879 51.6002 76.2919 50.4722 75.2479 49.4162L74.8399 45.4682L74.7799 44.8322L73.3159 30.5402L46.7239 15.1802L44.7799 31.8242C43.8199 31.7282 42.8479 31.7282 41.8879 31.8122C41.6119 31.8362 41.3479 31.8722 41.0839 31.9202C40.3999 32.0042 39.7399 32.1242 39.1039 32.2802V32.2562L24.7159 17.0522L11.4199 35.7242L23.8759 53.7362C23.7919 54.3362 23.7559 54.9362 23.7559 55.5362V59.2922C23.7559 59.8922 23.7919 60.5402 23.8759 61.2362L11.4199 64.8602L24.7159 98.8922L39.1039 100.26C39.9919 101.52 40.8919 102.732 41.8279 103.92C42.7519 105.096 43.7479 106.224 44.7799 107.292L46.7239 126.156L73.3159 141.516L75.2479 124.872C76.2199 124.98 77.1919 124.98 78.1519 124.872C79.1239 124.788 80.0479 124.632 80.9359 124.404L89.4439 133.44H89.4559L95.2039 139.572L108.5 120.9L103.208 113.256L102.896 112.8ZM72.2359 99.1322C71.3119 99.6602 70.3279 100.008 69.2839 100.164C68.7199 100.272 68.1439 100.308 67.5439 100.284C65.3359 100.224 62.9119 99.4322 60.2599 97.9202C56.2999 95.6282 52.8559 92.3282 49.9279 87.9962C49.6879 87.6482 49.4599 87.3002 49.2439 86.9402C48.8959 86.4002 48.5599 85.8362 48.2359 85.2722C48.0559 84.9602 47.8879 84.6482 47.7199 84.3482C45.9679 81.1562 44.7439 78.0002 44.0359 74.9042C43.5679 72.8162 43.3279 70.7522 43.3279 68.7122C43.3279 63.3482 44.9719 59.7242 48.2359 57.8162C51.4879 55.9082 55.5079 56.3282 60.2599 59.0642C62.4559 60.3362 64.5199 61.9562 66.4159 63.9002C67.4599 64.9682 68.4679 66.1322 69.4279 67.4042C70.4119 68.7122 71.3479 70.1402 72.2359 71.6642C73.3999 73.6802 74.3599 75.6722 75.1039 77.6402C75.6799 79.0922 76.1239 80.5442 76.4599 81.9722C76.9399 84.0962 77.1919 86.1962 77.1919 88.2602C77.1919 93.6242 75.5359 97.2482 72.2359 99.1322Z" stroke="url(#paint8_linear_176_3446)" stroke-width="2" stroke-linecap="round" stroke-linejoin="round"/>
  <path d="M77.1882 88.2602C77.1882 93.6242 75.5322 97.2482 72.2322 99.1322C71.3082 99.6602 70.3242 100.008 69.2802 100.164C68.7162 100.272 68.1402 100.308 67.5402 100.284C65.3322 100.224 62.9082 99.4322 60.2562 97.9202C56.2962 95.6282 52.8522 92.3282 49.9242 87.9962C49.6842 87.6482 49.4562 87.3002 49.2402 86.9402C48.8922 86.4002 48.5562 85.8362 48.2322 85.2722C48.0522 84.9602 47.8842 84.6482 47.7162 84.3482C45.9642 81.1562 44.7402 78.0002 44.0322 74.9042C43.5642 72.8162 43.3242 70.7522 43.3242 68.7122C43.3242 63.3482 44.9682 59.7242 48.2322 57.8162C51.4842 55.9082 55.5042 56.3282 60.2562 59.0642C62.4522 60.3362 64.5162 61.9562 66.4122 63.9002C67.4562 64.9682 68.4642 66.1322 69.4242 67.4042C70.1562 69.3482 71.0922 71.3042 72.2322 73.2722C72.7722 74.2202 73.3362 75.1322 73.9242 75.9962C74.3082 76.5602 74.7042 77.1122 75.1002 77.6402C75.6762 79.0922 76.1202 80.5442 76.4562 81.9722C76.9362 84.0962 77.1882 86.1962 77.1882 88.2602Z" stroke="url(#paint9_linear_176_3446)" stroke-width="2" stroke-linecap="round" stroke-linejoin="round"/>
  <path d="M54.5828 11.256L46.7228 15.18L44.7788 31.824C43.8188 31.728 42.8468 31.728 41.8868 31.812C41.6108 31.836 41.3468 31.872 41.0828 31.92C40.3988 32.004 39.7388 32.124 39.1028 32.28V32.256L24.7148 17.052L48.7148 5.06396L54.5828 11.268V11.256Z" stroke="url(#paint10_linear_176_3446)" stroke-width="2" stroke-linecap="round" stroke-linejoin="round"/>
  <path d="M89.4525 133.465L73.3125 141.529L75.2445 124.885C76.2165 124.993 77.1885 124.993 78.1485 124.885C79.1205 124.801 80.0445 124.645 80.9325 124.417L89.4405 133.453H89.4525V133.465Z" stroke="url(#paint11_linear_176_3446)" stroke-width="2" stroke-linecap="round" stroke-linejoin="round"/>
  <defs>
    <linearGradient id="paint0_linear_176_3446" x1="46.7227" y1="16.8659" x2="97.3147" y2="16.8659" gradientUnits="userSpaceOnUse">
      <stop stop-color="#FF8C00"/>
      <stop offset="1" stop-color="#FFBE44"/>
    </linearGradient>
    <linearGradient id="paint1_linear_176_3446" x1="96.041" y1="94.5364" x2="120.281" y2="94.5364" gradientUnits="userSpaceOnUse">
      <stop stop-color="#FF8C00"/>
      <stop offset="1" stop-color="#FFBE44"/>
    </linearGradient>
    <linearGradient id="paint2_linear_176_3446" x1="73.3125" y1="33.9785" x2="99.2445" y2="33.9785" gradientUnits="userSpaceOnUse">
      <stop stop-color="#FF8C00"/>
      <stop offset="1" stop-color="#FFBE44"/>
    </linearGradient>
    <linearGradient id="paint3_linear_176_3446" x1="75.2461" y1="46.9382" x2="104.934" y2="46.9382" gradientUnits="userSpaceOnUse">
      <stop stop-color="#FF8C00"/>
      <stop offset="1" stop-color="#FFBE44"/>
    </linearGradient>
    <linearGradient id="paint4_linear_176_3446" x1="80.9355" y1="51.1318" x2="119.312" y2="51.1318" gradientUnits="userSpaceOnUse">
      <stop stop-color="#FF8C00"/>
      <stop offset="1" stop-color="#FFBE44"/>
    </linearGradient>
    <linearGradient id="paint5_linear_176_3446" x1="95.3086" y1="68.8436" x2="132.617" y2="68.8436" gradientUnits="userSpaceOnUse">
      <stop stop-color="#FF8C00"/>
      <stop offset="1" stop-color="#FFBE44"/>
    </linearGradient>
    <linearGradient id="paint6_linear_176_3446" x1="95.2031" y1="124.243" x2="132.488" y2="124.243" gradientUnits="userSpaceOnUse">
      <stop stop-color="#FF8C00"/>
      <stop offset="1" stop-color="#FFBE44"/>
    </linearGradient>
    <linearGradient id="paint7_linear_176_3446" x1="96.0527" y1="105.894" x2="132.497" y2="105.894" gradientUnits="userSpaceOnUse">
      <stop stop-color="#FF8C00"/>
      <stop offset="1" stop-color="#FFBE44"/>
    </linearGradient>
    <linearGradient id="paint8_linear_176_3446" x1="11.4199" y1="78.3482" x2="108.62" y2="78.3482" gradientUnits="userSpaceOnUse">
      <stop stop-color="#FF8C00"/>
      <stop offset="1" stop-color="#FFBE44"/>
    </linearGradient>
    <linearGradient id="paint9_linear_176_3446" x1="43.3242" y1="78.467" x2="77.1882" y2="78.467" gradientUnits="userSpaceOnUse">
      <stop stop-color="#FF8C00"/>
      <stop offset="1" stop-color="#FFBE44"/>
    </linearGradient>
    <linearGradient id="paint10_linear_176_3446" x1="24.7148" y1="18.672" x2="54.5828" y2="18.672" gradientUnits="userSpaceOnUse">
      <stop stop-color="#FF8C00"/>
      <stop offset="1" stop-color="#FFBE44"/>
    </linearGradient>
    <linearGradient id="paint11_linear_176_3446" x1="73.3125" y1="132.973" x2="89.4525" y2="132.973" gradientUnits="userSpaceOnUse">
      <stop stop-color="#FF8C00"/>
      <stop offset="1" stop-color="#FFBE44"/>
    </linearGradient>
  </defs>
</svg>