<svg xmlns="http://www.w3.org/2000/svg" width="144" height="144" viewBox="0 0 144 144" fill="none">
  <path d="M101.101 89.7101V80.3037L92.9021 75.5772V56.7759L81.3008 50.0753L77.2016 47.7062L54.6725 34.6998L42.386 27.6043L19.1602 14.1914V98.8146L92.9021 141.399V122.598L101.101 127.324V117.918L92.9021 113.191V103.785L101.101 108.523V99.1166L92.9021 94.3785V84.9835L101.101 89.7101ZM53.9758 104.819L31.4467 91.8119V73.0108L42.386 79.3281L48.9008 83.0906L53.9758 86.0171V104.819ZM53.9758 81.314L53.2673 80.9074L42.386 74.625L31.4467 68.3074V35.3966L42.386 41.7139L53.9758 48.4029V81.314ZM80.6156 120.194L58.075 107.187V74.2766L77.2016 85.3088L80.6156 87.283V120.194ZM80.6156 82.5798L77.2016 80.6056L58.075 69.5733V50.7721L75.5292 60.8404L77.2016 61.8043L80.6156 63.7784V82.5798Z" stroke="url(#paint0_linear_176_3420)" stroke-width="2" stroke-linecap="round" stroke-linejoin="round"/>
  <path d="M53.9763 48.4028V57.0429L42.3865 62.8378L31.4473 68.3073V35.3965L42.3865 41.7138L53.9763 48.4028Z" stroke="url(#paint1_linear_176_3420)" stroke-width="2" stroke-linecap="round" stroke-linejoin="round"/>
  <path d="M116.126 82.1968V82.7658L103.84 88.9089L92.9004 94.3787V84.9838L101.099 89.7102L103.84 88.3399L116.126 82.1968Z" stroke="url(#paint2_linear_176_3420)" stroke-width="2" stroke-linecap="round" stroke-linejoin="round"/>
  <path d="M116.126 119.811V129.787L92.9004 141.399V122.598L101.099 127.325L106.871 124.445L116.126 119.811Z" stroke="url(#paint3_linear_176_3420)" stroke-width="2" stroke-linecap="round" stroke-linejoin="round"/>
  <path d="M124.329 106.305V115.712L116.131 119.811L106.875 124.445L101.104 127.325V117.918L124.329 106.305Z" stroke="url(#paint4_linear_176_3420)" stroke-width="2" stroke-linecap="round" stroke-linejoin="round"/>
  <path d="M124.325 106.305L101.099 117.917L92.9004 113.191L103.039 108.116L103.84 107.721L116.126 101.578L124.325 106.305Z" stroke="url(#paint5_linear_176_3420)" stroke-width="2" stroke-linecap="round" stroke-linejoin="round"/>
  <path d="M116.126 101.01V101.579L103.84 107.722L103.039 108.117L92.9004 113.192V103.785L101.099 108.523L102.516 107.815L103.84 107.153L116.126 101.01Z" stroke="url(#paint6_linear_176_3420)" stroke-width="2" stroke-linecap="round" stroke-linejoin="round"/>
  <path d="M124.329 87.5039V96.9104L116.131 101.01L103.844 107.153L102.52 107.815L101.104 108.523V99.1168L124.329 87.5039Z" stroke="url(#paint7_linear_176_3420)" stroke-width="2" stroke-linecap="round" stroke-linejoin="round"/>
  <path d="M124.325 87.5032L101.099 99.1161L92.9004 94.378L103.84 88.9082L116.126 82.7651L124.325 87.5032Z" stroke="url(#paint8_linear_176_3420)" stroke-width="2" stroke-linecap="round" stroke-linejoin="round"/>
  <path d="M124.329 68.6909V78.0974L116.131 82.1968L103.844 88.3399L101.104 89.7103V80.3038L124.329 68.6909Z" stroke="url(#paint9_linear_176_3420)" stroke-width="2" stroke-linecap="round" stroke-linejoin="round"/>
  <path d="M124.325 68.6903L101.099 80.3032L92.9004 75.5768L98.6721 72.6852L103.039 70.5019L103.84 70.1071L116.126 63.9639L124.325 68.6903Z" stroke="url(#paint10_linear_176_3420)" stroke-width="2" stroke-linecap="round" stroke-linejoin="round"/>
  <path d="M80.6188 95.9224V120.193L58.0781 107.187L68.2161 102.112L80.6188 95.9224Z" stroke="url(#paint11_linear_176_3420)" stroke-width="2" stroke-linecap="round" stroke-linejoin="round"/>
  <path d="M53.9763 86.0169V104.818L31.4473 91.8117L42.3865 86.3421L48.9013 83.0903L53.9763 86.0169Z" stroke="url(#paint12_linear_176_3420)" stroke-width="2" stroke-linecap="round" stroke-linejoin="round"/>
  <path d="M48.9013 83.0906L42.3865 86.3424L31.4473 91.812V73.0107L42.3865 79.3282L48.9013 83.0906Z" stroke="url(#paint13_linear_176_3420)" stroke-width="2" stroke-linecap="round" stroke-linejoin="round"/>
  <path d="M53.9763 57.0425V81.3135L53.2678 80.9069L42.3865 74.6244L31.4473 68.307L42.3865 62.8373L53.9763 57.0425Z" stroke="url(#paint14_linear_176_3420)" stroke-width="2" stroke-linecap="round" stroke-linejoin="round"/>
  <path d="M116.128 45.1627L103.04 51.7007L92.9021 56.7756L81.3008 50.0749L77.2016 47.7059L54.6725 34.6994L42.386 27.604L19.1602 14.1911L42.386 2.57812L116.128 45.1627Z" stroke="url(#paint15_linear_176_3420)" stroke-width="2" stroke-linecap="round" stroke-linejoin="round"/>
  <path d="M116.126 45.1626V63.9639L103.84 70.1071L103.039 70.502L98.6721 72.6852L92.9004 75.5768V56.7755L103.039 51.7007L116.126 45.1626Z" stroke="url(#paint16_linear_176_3420)" stroke-width="2" stroke-linecap="round" stroke-linejoin="round"/>
  <path d="M80.6188 63.7788V82.5802L77.2047 80.6061L58.0781 69.5738L68.2047 64.5104L75.5323 60.8408L77.2047 61.8047L80.6188 63.7788Z" stroke="url(#paint17_linear_176_3420)" stroke-width="2" stroke-linecap="round" stroke-linejoin="round"/>
  <path d="M75.5323 60.8399L68.2047 64.5094L58.0781 69.5728V50.7715L75.5323 60.8399Z" stroke="url(#paint18_linear_176_3420)" stroke-width="2" stroke-linecap="round" stroke-linejoin="round"/>
  <path d="M80.6188 87.2828V95.9228L68.2161 102.112L58.0781 107.187V74.2764L77.2047 85.3086L80.6188 87.2828Z" stroke="url(#paint19_linear_176_3420)" stroke-width="2" stroke-linecap="round" stroke-linejoin="round"/>
  <defs>
    <linearGradient id="paint0_linear_176_3420" x1="19.1602" y1="77.7953" x2="101.101" y2="77.7953" gradientUnits="userSpaceOnUse">
      <stop stop-color="#FF8C00"/>
      <stop offset="1" stop-color="#FFBE44"/>
    </linearGradient>
    <linearGradient id="paint1_linear_176_3420" x1="31.4473" y1="51.8519" x2="53.9763" y2="51.8519" gradientUnits="userSpaceOnUse">
      <stop stop-color="#FF8C00"/>
      <stop offset="1" stop-color="#FFBE44"/>
    </linearGradient>
    <linearGradient id="paint2_linear_176_3420" x1="92.9004" y1="88.2877" x2="116.126" y2="88.2877" gradientUnits="userSpaceOnUse">
      <stop stop-color="#FF8C00"/>
      <stop offset="1" stop-color="#FFBE44"/>
    </linearGradient>
    <linearGradient id="paint3_linear_176_3420" x1="92.9004" y1="130.605" x2="116.126" y2="130.605" gradientUnits="userSpaceOnUse">
      <stop stop-color="#FF8C00"/>
      <stop offset="1" stop-color="#FFBE44"/>
    </linearGradient>
    <linearGradient id="paint4_linear_176_3420" x1="101.104" y1="116.815" x2="124.329" y2="116.815" gradientUnits="userSpaceOnUse">
      <stop stop-color="#FF8C00"/>
      <stop offset="1" stop-color="#FFBE44"/>
    </linearGradient>
    <linearGradient id="paint5_linear_176_3420" x1="92.9004" y1="109.748" x2="124.325" y2="109.748" gradientUnits="userSpaceOnUse">
      <stop stop-color="#FF8C00"/>
      <stop offset="1" stop-color="#FFBE44"/>
    </linearGradient>
    <linearGradient id="paint6_linear_176_3420" x1="92.9004" y1="107.101" x2="116.126" y2="107.101" gradientUnits="userSpaceOnUse">
      <stop stop-color="#FF8C00"/>
      <stop offset="1" stop-color="#FFBE44"/>
    </linearGradient>
    <linearGradient id="paint7_linear_176_3420" x1="101.104" y1="98.0136" x2="124.329" y2="98.0136" gradientUnits="userSpaceOnUse">
      <stop stop-color="#FF8C00"/>
      <stop offset="1" stop-color="#FFBE44"/>
    </linearGradient>
    <linearGradient id="paint8_linear_176_3420" x1="92.9004" y1="90.9406" x2="124.325" y2="90.9406" gradientUnits="userSpaceOnUse">
      <stop stop-color="#FF8C00"/>
      <stop offset="1" stop-color="#FFBE44"/>
    </linearGradient>
    <linearGradient id="paint9_linear_176_3420" x1="101.104" y1="79.2006" x2="124.329" y2="79.2006" gradientUnits="userSpaceOnUse">
      <stop stop-color="#FF8C00"/>
      <stop offset="1" stop-color="#FFBE44"/>
    </linearGradient>
    <linearGradient id="paint10_linear_176_3420" x1="92.9004" y1="72.1335" x2="124.325" y2="72.1335" gradientUnits="userSpaceOnUse">
      <stop stop-color="#FF8C00"/>
      <stop offset="1" stop-color="#FFBE44"/>
    </linearGradient>
    <linearGradient id="paint11_linear_176_3420" x1="58.0781" y1="108.058" x2="80.6188" y2="108.058" gradientUnits="userSpaceOnUse">
      <stop stop-color="#FF8C00"/>
      <stop offset="1" stop-color="#FFBE44"/>
    </linearGradient>
    <linearGradient id="paint12_linear_176_3420" x1="31.4473" y1="93.9543" x2="53.9763" y2="93.9543" gradientUnits="userSpaceOnUse">
      <stop stop-color="#FF8C00"/>
      <stop offset="1" stop-color="#FFBE44"/>
    </linearGradient>
    <linearGradient id="paint13_linear_176_3420" x1="31.4473" y1="82.4114" x2="48.9013" y2="82.4114" gradientUnits="userSpaceOnUse">
      <stop stop-color="#FF8C00"/>
      <stop offset="1" stop-color="#FFBE44"/>
    </linearGradient>
    <linearGradient id="paint14_linear_176_3420" x1="31.4473" y1="69.178" x2="53.9763" y2="69.178" gradientUnits="userSpaceOnUse">
      <stop stop-color="#FF8C00"/>
      <stop offset="1" stop-color="#FFBE44"/>
    </linearGradient>
    <linearGradient id="paint15_linear_176_3420" x1="19.1602" y1="29.6768" x2="116.128" y2="29.6768" gradientUnits="userSpaceOnUse">
      <stop stop-color="#FF8C00"/>
      <stop offset="1" stop-color="#FFBE44"/>
    </linearGradient>
    <linearGradient id="paint16_linear_176_3420" x1="92.9004" y1="60.3697" x2="116.126" y2="60.3697" gradientUnits="userSpaceOnUse">
      <stop stop-color="#FF8C00"/>
      <stop offset="1" stop-color="#FFBE44"/>
    </linearGradient>
    <linearGradient id="paint17_linear_176_3420" x1="58.0781" y1="71.7105" x2="80.6188" y2="71.7105" gradientUnits="userSpaceOnUse">
      <stop stop-color="#FF8C00"/>
      <stop offset="1" stop-color="#FFBE44"/>
    </linearGradient>
    <linearGradient id="paint18_linear_176_3420" x1="58.0781" y1="60.1721" x2="75.5323" y2="60.1721" gradientUnits="userSpaceOnUse">
      <stop stop-color="#FF8C00"/>
      <stop offset="1" stop-color="#FFBE44"/>
    </linearGradient>
    <linearGradient id="paint19_linear_176_3420" x1="58.0781" y1="90.7318" x2="80.6188" y2="90.7318" gradientUnits="userSpaceOnUse">
      <stop stop-color="#FF8C00"/>
      <stop offset="1" stop-color="#FFBE44"/>
    </linearGradient>
  </defs>
</svg>