<svg xmlns="http://www.w3.org/2000/svg" width="144" height="144" viewBox="0 0 144 144" fill="none">
  <path d="M106.937 106.737C106.937 109.761 106.741 112.576 106.348 115.22C105.746 119.291 104.685 122.931 103.141 126.125C102.918 126.596 102.682 127.067 102.434 127.512C99.9858 132.081 96.7785 135.498 92.825 137.749C92.3799 137.998 91.9218 138.247 91.4636 138.469C87.4316 140.407 82.7843 141.166 77.5218 140.734C71.6439 140.25 65.3734 138.09 58.697 134.241C55.0839 132.147 51.5493 129.672 48.0933 126.792C44.6373 123.925 41.2992 120.679 38.0789 117.066C36.7959 117.157 35.4476 117 34.0338 116.608C32.633 116.215 31.206 115.586 29.7529 114.762C25.0925 112.065 21.1129 107.876 17.814 102.195C14.5282 96.5 12.8789 90.9886 12.8789 85.6344C12.8789 80.2802 14.5282 76.6673 17.814 74.7953L18.6519 74.3764C21.7807 72.9887 25.4722 73.5385 29.7529 76.0127C34.4264 78.6964 38.4063 82.8853 41.6921 88.5799C44.991 94.2613 46.6403 99.7858 46.6403 105.127C46.6403 107.156 46.3785 108.976 45.8549 110.56C45.6323 111.214 45.3705 111.829 45.0694 112.392C46.9938 114.382 48.9574 116.163 50.9865 117.812C53.5523 119.893 56.1312 121.674 58.697 123.166C69.4709 129.384 78.5952 130.366 86.0832 126.099C87.3399 125.379 88.4919 124.554 89.5392 123.585C92.0919 121.294 94.0163 118.283 95.2992 114.605C96.6345 110.848 97.289 106.358 97.289 101.16L106.937 106.737Z" stroke="url(#paint0_linear_181_10196)" stroke-width="2" stroke-linecap="round" stroke-linejoin="round"/>
  <path d="M75.5855 88.6318C75.5855 93.5409 74.198 96.9838 71.4359 98.9475C71.3311 99.0391 71.2264 99.1047 71.1086 99.1701C70.9515 99.288 70.7944 99.3796 70.6373 99.4712C70.598 99.4974 70.5586 99.5235 70.5063 99.5496C70.2445 99.6806 69.9695 99.8246 69.6946 99.9424C66.5921 101.265 62.9268 100.702 58.6984 98.2536C54.038 95.5569 50.0584 91.3678 46.7595 85.6864C43.4737 80.0049 41.8242 74.4806 41.8242 69.1395C41.8242 66.4035 42.2562 64.1256 43.1202 62.2929C43.1464 62.2275 43.1725 62.162 43.2117 62.0965C44.0234 60.4471 45.2148 59.1774 46.7595 58.2872L47.7935 57.7767C50.883 56.5069 54.5224 57.0958 58.6984 59.5045C63.3719 62.2013 67.3515 66.3904 70.6373 72.0718C73.9362 77.7533 75.5855 83.2776 75.5855 88.6318Z" stroke="url(#paint1_linear_181_10196)" stroke-width="2" stroke-linecap="round" stroke-linejoin="round"/>
  <path d="M104.529 72.124C104.529 76.9676 103.181 80.3843 100.484 82.3872C100.209 82.6098 99.9079 82.7931 99.5937 82.9763C96.3079 84.8483 92.3283 84.4425 87.6548 81.7589C82.9945 79.0622 79.0148 74.8731 75.7159 69.1916C72.4301 63.4971 70.7807 57.9858 70.7807 52.6316C70.7807 50.6025 71.0423 48.7958 71.5529 47.1987C71.7231 46.662 71.9325 46.1647 72.1813 45.6934C72.1943 45.6411 72.2207 45.6017 72.2599 45.5493C72.2861 45.4707 72.3122 45.4054 72.3645 45.3531C70.4402 43.3894 68.4503 41.596 66.4343 39.9596C63.8554 37.8651 61.2897 36.0846 58.7108 34.5922C55.0454 32.4715 51.5762 30.9662 48.2903 30.076C44.3369 28.9763 40.6585 28.78 37.2548 29.4607C35.1734 29.8665 33.2097 30.5996 31.3377 31.66C23.8628 35.9276 20.1187 44.2403 20.1187 56.5982L10.4707 51.0345C10.4707 43.3763 11.7406 36.9093 14.2802 31.6337C16.8067 26.358 20.2497 22.4831 24.5827 20.0089C25.054 19.734 25.5252 19.4854 26.0227 19.2629L26.1798 19.1843C30.1594 17.3123 34.7412 16.5923 39.8991 17.0243C40.318 17.0636 40.737 17.1029 41.169 17.1552C45.2796 17.6527 49.5732 18.9618 54.0634 21.0825C55.5951 21.8025 57.1399 22.6272 58.7108 23.5305C62.337 25.612 65.8716 28.0992 69.3276 30.9662C72.7836 33.8462 76.1216 37.0796 79.342 40.6927C80.6249 40.6011 81.9734 40.7582 83.3741 41.1509C84.7879 41.5567 86.2148 42.172 87.6548 43.0098C92.3283 45.6934 96.3079 49.8825 99.5937 55.5771C102.893 61.2585 104.542 66.7698 104.542 72.124H104.529Z" stroke="url(#paint2_linear_181_10196)" stroke-width="2" stroke-linecap="round" stroke-linejoin="round"/>
  <path d="M99.8027 30.4548L100.078 30.3238V30.1406C99.9731 30.2454 99.8813 30.3501 99.8027 30.4548Z" stroke="url(#paint3_linear_181_10196)" stroke-width="2" stroke-linecap="round" stroke-linejoin="round"/>
  <path d="M133.125 93.6445L122.22 99.0903V99.1034L106.943 106.735L97.2949 101.159L123.477 88.0679L133.125 93.6445Z" stroke="url(#paint4_linear_181_10196)" stroke-width="2" stroke-linecap="round" stroke-linejoin="round"/>
  <path d="M133.12 93.6445C133.12 101.303 131.864 107.757 129.324 113.032C126.797 118.308 123.354 122.183 119.008 124.657L116.966 125.678L91.4648 138.468C91.923 138.245 92.3813 137.996 92.8264 137.748C96.7799 135.496 99.987 132.079 102.435 127.511C102.684 127.066 102.92 126.594 103.142 126.123C104.687 122.929 105.747 119.29 106.349 115.218C106.742 112.574 106.938 109.759 106.938 106.735L122.215 99.1034L133.12 93.6445Z" stroke="url(#paint5_linear_181_10196)" stroke-width="2" stroke-linecap="round" stroke-linejoin="round"/>
  <path d="M95.3001 114.604C94.0172 118.282 92.0929 121.293 89.5401 123.584C88.4929 124.553 87.3407 125.378 86.084 126.098C78.596 130.365 69.4718 129.383 58.6979 123.165C56.1321 121.673 53.5532 119.892 50.9874 117.811C48.9583 116.162 46.9947 114.381 45.0703 112.404L62.0885 103.895H62.1016L71.239 99.3267C73.1765 101.277 75.1401 103.071 77.1692 104.72C79.735 106.802 82.3139 108.582 84.8798 110.074C88.5452 112.195 92.0143 113.7 95.3001 114.604Z" stroke="url(#paint6_linear_181_10196)" stroke-width="2" stroke-linecap="round" stroke-linejoin="round"/>
  <path d="M71.3602 99.1173C71.321 99.1958 71.2948 99.2482 71.2424 99.3136L62.1051 103.895H62.092L45.0738 112.391C45.3749 111.829 45.6366 111.213 45.8592 110.559C46.3828 108.975 46.6446 107.155 46.6446 105.126C46.6446 99.7849 44.9953 94.2606 41.6964 88.5791C38.4106 82.8846 34.4308 78.6955 29.7573 76.0118C25.4766 73.5376 21.785 72.9878 18.6562 74.3755L43.2148 62.0962C43.2148 62.0962 43.1495 62.2271 43.1233 62.2926C42.2593 64.1253 41.8273 66.4031 41.8273 69.1391C41.8273 74.4802 43.4767 80.0046 46.7626 85.686C50.0615 91.3675 54.0411 95.5566 58.7015 98.2533C62.9298 100.701 66.5952 101.264 69.6977 99.942C69.9726 99.8242 70.2475 99.6802 70.5093 99.5493C70.5617 99.5231 70.6011 99.4969 70.6404 99.4707L71.3602 99.1173Z" stroke="url(#paint7_linear_181_10196)" stroke-width="2" stroke-linecap="round" stroke-linejoin="round"/>
  <path d="M48.2811 30.0753C46.9589 33.8324 46.2913 38.3095 46.2913 43.5066L20.1094 56.5975C20.1094 44.2397 23.8534 35.927 31.3284 31.6593C33.2004 30.599 35.164 29.866 37.2454 29.4602C40.6491 28.7795 44.3276 28.9757 48.2811 30.0753Z" stroke="url(#paint8_linear_181_10196)" stroke-width="2" stroke-linecap="round" stroke-linejoin="round"/>
  <path d="M45.0717 112.405H45.0586" stroke="url(#paint9_linear_181_10196)" stroke-width="2" stroke-linecap="round" stroke-linejoin="round"/>
  <path d="M100.079 30.3239V30.1407C99.9747 30.2454 99.8829 30.3502 99.8043 30.4549L97.7492 31.4759L79.3303 40.6919C76.1099 37.0788 72.7717 33.8454 69.3157 30.9654C65.8597 28.0985 62.3252 25.6111 58.699 23.5297C57.1281 22.6264 55.5834 21.8017 54.0517 21.0817C49.5616 18.9609 45.2677 17.6519 41.1572 17.1544C40.7252 17.102 40.3063 17.0629 39.8874 17.0236C34.7296 16.5916 30.1476 17.3116 26.168 19.1836L51.4597 6.55083L52.4546 6.05338L52.4939 6.02717C56.4474 4.20753 60.9637 3.51374 66.0692 3.93265C71.947 4.41701 78.2176 6.57697 84.8808 10.4388C88.507 12.5202 92.0416 15.0076 95.4976 17.8745C98.9536 20.7545 102.292 23.9879 105.512 27.6009L100.079 30.3239Z" stroke="url(#paint10_linear_181_10196)" stroke-width="2" stroke-linecap="round" stroke-linejoin="round"/>
  <path d="M130.712 59.0324C130.712 64.3866 129.062 67.9996 125.764 69.8847C125.371 70.1073 124.978 70.2904 124.572 70.4475L100.485 82.3864C103.182 80.3835 104.53 76.9669 104.53 72.1233C104.53 66.7691 102.881 61.2578 99.5817 55.5764C96.2959 49.8818 92.3163 45.6927 87.6428 43.0091C86.2028 42.1713 84.7759 41.5559 83.3621 41.1501C81.9613 40.7573 80.613 40.6004 79.3301 40.692L97.749 31.4759L99.8041 30.4549L100.079 30.3239L105.512 27.6011C106.795 27.5095 108.143 27.6664 109.544 28.0591C110.958 28.465 112.385 29.0804 113.825 29.9182C118.498 32.6018 122.478 36.7909 125.764 42.4855C129.062 48.1669 130.712 53.6782 130.712 59.0324Z" stroke="url(#paint11_linear_181_10196)" stroke-width="2" stroke-linecap="round" stroke-linejoin="round"/>
  <path d="M124.956 70.2642L124.576 70.4474" stroke="url(#paint12_linear_181_10196)" stroke-width="2" stroke-linecap="round" stroke-linejoin="round"/>
  <path d="M100.473 82.3858C99.648 84.14 98.4306 85.4622 96.8204 86.3785L95.7862 86.8891L71.3586 99.116L70.6386 99.4694C70.7956 99.3778 70.9527 99.2862 71.1098 99.1683C71.2276 99.1029 71.3324 99.0374 71.4371 98.9458C74.1993 96.9822 75.5868 93.5393 75.5868 88.6302C75.5868 83.276 73.9375 77.7516 70.6386 72.0702C67.3527 66.3887 63.3731 62.1996 58.6997 59.5029C54.5237 57.0942 50.8844 56.5051 47.7949 57.7749L72.2487 45.5479C72.2487 45.5479 72.1833 45.6397 72.1702 45.6921C71.9215 46.1634 71.712 46.6607 71.5418 47.1974C71.0313 48.7945 70.7695 50.6011 70.7695 52.6302C70.7695 57.9843 72.4189 63.4956 75.7047 69.1902C79.0036 74.8716 82.9833 79.0607 87.6436 81.7574C92.3171 84.4411 96.2967 84.8469 99.5826 82.9749C99.8967 82.7916 100.198 82.6083 100.473 82.3858Z" stroke="url(#paint13_linear_181_10196)" stroke-width="2" stroke-linecap="round" stroke-linejoin="round"/>
  <defs>
    <linearGradient id="paint0_linear_181_10196" x1="12.8789" y1="107.241" x2="106.937" y2="107.241" gradientUnits="userSpaceOnUse">
      <stop stop-color="white"/>
      <stop offset="1" stop-color="#999999"/>
    </linearGradient>
    <linearGradient id="paint1_linear_181_10196" x1="41.8242" y1="78.8812" x2="75.5855" y2="78.8812" gradientUnits="userSpaceOnUse">
      <stop stop-color="white"/>
      <stop offset="1" stop-color="#999999"/>
    </linearGradient>
    <linearGradient id="paint2_linear_181_10196" x1="10.4707" y1="50.5165" x2="104.542" y2="50.5165" gradientUnits="userSpaceOnUse">
      <stop stop-color="white"/>
      <stop offset="1" stop-color="#999999"/>
    </linearGradient>
    <linearGradient id="paint3_linear_181_10196" x1="99.8027" y1="30.2977" x2="100.078" y2="30.2977" gradientUnits="userSpaceOnUse">
      <stop stop-color="white"/>
      <stop offset="1" stop-color="#999999"/>
    </linearGradient>
    <linearGradient id="paint4_linear_181_10196" x1="97.2949" y1="97.4016" x2="133.125" y2="97.4016" gradientUnits="userSpaceOnUse">
      <stop stop-color="white"/>
      <stop offset="1" stop-color="#999999"/>
    </linearGradient>
    <linearGradient id="paint5_linear_181_10196" x1="91.4648" y1="116.056" x2="133.12" y2="116.056" gradientUnits="userSpaceOnUse">
      <stop stop-color="white"/>
      <stop offset="1" stop-color="#999999"/>
    </linearGradient>
    <linearGradient id="paint6_linear_181_10196" x1="45.0703" y1="114.014" x2="95.3001" y2="114.014" gradientUnits="userSpaceOnUse">
      <stop stop-color="white"/>
      <stop offset="1" stop-color="#999999"/>
    </linearGradient>
    <linearGradient id="paint7_linear_181_10196" x1="18.6562" y1="87.2438" x2="71.3602" y2="87.2438" gradientUnits="userSpaceOnUse">
      <stop stop-color="white"/>
      <stop offset="1" stop-color="#999999"/>
    </linearGradient>
    <linearGradient id="paint8_linear_181_10196" x1="20.1094" y1="42.8315" x2="48.2811" y2="42.8315" gradientUnits="userSpaceOnUse">
      <stop stop-color="white"/>
      <stop offset="1" stop-color="#999999"/>
    </linearGradient>
    <linearGradient id="paint9_linear_181_10196" x1="45.0586" y1="112.905" x2="45.0717" y2="112.905" gradientUnits="userSpaceOnUse">
      <stop stop-color="white"/>
      <stop offset="1" stop-color="#999999"/>
    </linearGradient>
    <linearGradient id="paint10_linear_181_10196" x1="26.168" y1="22.2532" x2="105.512" y2="22.2532" gradientUnits="userSpaceOnUse">
      <stop stop-color="white"/>
      <stop offset="1" stop-color="#999999"/>
    </linearGradient>
    <linearGradient id="paint11_linear_181_10196" x1="79.3301" y1="54.9811" x2="130.712" y2="54.9811" gradientUnits="userSpaceOnUse">
      <stop stop-color="white"/>
      <stop offset="1" stop-color="#999999"/>
    </linearGradient>
    <linearGradient id="paint12_linear_181_10196" x1="124.576" y1="70.3558" x2="124.956" y2="70.3558" gradientUnits="userSpaceOnUse">
      <stop stop-color="white"/>
      <stop offset="1" stop-color="#999999"/>
    </linearGradient>
    <linearGradient id="paint13_linear_181_10196" x1="47.7949" y1="72.5086" x2="100.473" y2="72.5086" gradientUnits="userSpaceOnUse">
      <stop stop-color="white"/>
      <stop offset="1" stop-color="#999999"/>
    </linearGradient>
  </defs>
</svg>