<svg xmlns="http://www.w3.org/2000/svg" width="144" height="144" viewBox="0 0 144 144" fill="none">
  <path d="M50.902 40.8108C50.902 45.4828 49.4513 48.6402 46.5607 50.2935C43.6593 51.9468 40.182 51.5948 36.118 49.2482C32.054 46.9015 28.566 43.2214 25.6753 38.2294C22.774 33.2374 21.334 28.4055 21.334 23.7442C21.334 19.0828 22.774 15.9147 25.6753 14.2614L26.4327 13.8775C29.1633 12.6828 32.406 13.1627 36.118 15.3067C39.638 17.3334 42.71 20.3627 45.3447 24.3734C45.7607 25.0027 46.166 25.6535 46.5607 26.3255C47.19 27.4028 47.7447 28.4695 48.2247 29.5255C50.006 33.3868 50.902 37.1522 50.902 40.8108Z" stroke="url(#paint0_linear_181_10133)" stroke-width="2" stroke-linecap="round" stroke-linejoin="round"/>
  <path d="M116.812 129.931L116.972 130.207L122.146 127.264L116.812 129.931Z" stroke="url(#paint1_linear_181_10133)" stroke-width="2" stroke-linecap="round" stroke-linejoin="round"/>
  <path d="M50.902 87.4766C50.902 92.1486 49.4513 95.3059 46.5607 96.9486C43.6593 98.6019 40.182 98.2606 36.118 95.9033C32.054 93.5566 28.566 89.8873 25.6753 84.8953C22.774 79.9033 21.334 75.0713 21.334 70.3993C21.334 65.7273 22.774 62.5806 25.6753 60.9273L26.358 60.586C29.11 59.338 32.3633 59.8073 36.118 61.9726C39.6273 63.9993 42.6993 67.0073 45.334 71.0073C45.7607 71.6366 46.166 72.298 46.5607 72.9807C47.19 74.058 47.7447 75.1353 48.2353 76.2019C50.006 80.0633 50.902 83.8179 50.902 87.4766Z" stroke="url(#paint2_linear_181_10133)" stroke-width="2" stroke-linecap="round" stroke-linejoin="round"/>
  <path d="M91.5709 64.2881C91.5709 68.9601 90.1202 72.1175 87.2189 73.7709C84.3282 75.4242 80.8402 75.0722 76.7762 72.7255C74.4295 71.3709 72.2855 69.5788 70.3229 67.3388C68.8935 65.7068 67.5602 63.8294 66.3335 61.7068C65.3522 60.0214 64.5415 58.3468 63.9015 56.6934C62.6215 53.4614 61.9922 50.3041 61.9922 47.2214C61.9922 45.2908 62.2375 43.6161 62.7389 42.2081C62.9309 41.6321 63.1655 41.1094 63.4535 40.6294C64.1575 39.4028 65.1069 38.4428 66.3335 37.7388L67.0162 37.3975C68.1789 36.8749 69.4269 36.6508 70.7709 36.7468C72.6055 36.8534 74.6002 37.5361 76.7762 38.7841C80.2855 40.8108 83.3682 43.8401 86.0029 47.8401C86.4189 48.4694 86.8242 49.1201 87.2189 49.8028C87.8482 50.8801 88.4029 51.9468 88.8829 53.0028C90.6749 56.8641 91.5709 60.6294 91.5709 64.2881Z" stroke="url(#paint3_linear_181_10133)" stroke-width="2" stroke-linecap="round" stroke-linejoin="round"/>
  <path d="M72.2343 30.1433C72.2343 32.074 71.989 33.7378 71.4877 35.1565L67.0183 37.3966C66.7837 37.4926 66.5597 37.61 66.3357 37.738C65.109 38.442 64.1597 39.4018 63.4557 40.6285C63.1677 41.1085 62.933 41.6313 62.741 42.1966L46.5597 50.2926C49.4503 48.6393 50.901 45.482 50.901 40.81C50.901 37.1513 50.005 33.386 48.2237 29.5246C47.7437 28.4686 47.189 27.402 46.5597 26.3246C46.165 25.6526 45.7597 25.0018 45.3437 24.3725C42.709 20.3618 39.637 17.3325 36.117 15.3058C32.405 13.1618 29.1623 12.682 26.4316 13.8766L47.0077 3.5939C49.8983 1.94056 53.3863 2.29254 57.4503 4.63921C61.5143 6.98588 64.9917 10.666 67.893 15.658C70.7837 20.65 72.2343 25.482 72.2343 30.1433Z" stroke="url(#paint4_linear_181_10133)" stroke-width="2" stroke-linecap="round" stroke-linejoin="round"/>
  <path d="M72.2328 76.8102C72.2328 78.7409 71.9875 80.4156 71.4862 81.8236L67.1342 84.0102L66.3342 84.4049C65.1182 85.0982 64.1582 86.0582 63.4542 87.2849C63.1768 87.7649 62.9422 88.2877 62.7395 88.853L46.5582 96.9489C49.4488 95.3062 50.8995 92.1489 50.8995 87.4769C50.8995 83.8182 50.0035 80.0635 48.2328 76.2022C47.7422 75.1355 47.1875 74.0583 46.5582 72.981C46.1635 72.2983 45.7582 71.6369 45.3315 71.0076C42.6968 67.0076 39.6248 63.9996 36.1155 61.9729C32.3608 59.8076 29.1075 59.3383 26.3555 60.5863L47.0062 50.2609C49.8968 48.6075 53.3848 48.9596 57.4488 51.3062C59.7955 52.6609 61.9395 54.4529 63.9022 56.6929C64.5422 58.3462 65.3528 60.0209 66.3342 61.7062C67.5608 63.8289 68.8942 65.7062 70.3235 67.3382C71.6035 70.5702 72.2328 73.7275 72.2328 76.8102Z" stroke="url(#paint5_linear_181_10133)" stroke-width="2" stroke-linecap="round" stroke-linejoin="round"/>
  <path d="M112.908 53.6216C112.908 58.2936 111.457 61.451 108.556 63.1044L87.2222 73.771C90.1235 72.1177 91.5742 68.9602 91.5742 64.2882C91.5742 60.6296 90.6782 56.8642 88.8862 53.0029C88.4062 51.9469 87.8515 50.8802 87.2222 49.8029C86.8275 49.1202 86.4222 48.4696 86.0062 47.8402C83.3715 43.8402 80.2889 40.8109 76.7795 38.7842C74.6035 37.5362 72.6089 36.8536 70.7742 36.7469C69.4302 36.6509 68.1822 36.875 67.0195 37.3977L71.4889 35.1576L87.6702 27.0722C90.5715 25.4296 94.0489 25.7709 98.1129 28.1176C102.177 30.4642 105.665 34.1442 108.556 39.1362C111.457 44.1282 112.908 48.9602 112.908 53.6216Z" stroke="url(#paint6_linear_181_10133)" stroke-width="2" stroke-linecap="round" stroke-linejoin="round"/>
  <path d="M89.4375 118.421C90.1202 117.546 90.6429 116.479 91.0162 115.253C91.3789 114.015 91.5709 112.586 91.5709 110.954C91.5709 107.295 90.6749 103.54 88.8935 99.6683C88.4029 98.6123 87.8482 97.5351 87.2189 96.4578C86.8242 95.7751 86.4082 95.1137 85.9922 94.4737C83.3575 90.4843 80.2855 87.4763 76.7762 85.4497C74.6109 84.2017 72.6055 83.5083 70.7709 83.4017C69.4802 83.3163 68.2642 83.5298 67.1335 84.0098L66.3335 84.4045C65.1175 85.0978 64.1575 86.0577 63.4535 87.2843C63.1762 87.7643 62.9415 88.2871 62.7389 88.8524C62.2375 90.2711 61.9922 91.9351 61.9922 93.8764C61.9922 98.5484 63.4429 103.38 66.3335 108.373C69.2349 113.365 72.7122 117.034 76.7762 119.381C78.1309 120.17 79.4429 120.735 80.7015 121.066C81.9709 121.407 83.1549 121.514 84.2642 121.375L95.6349 140.874L100.808 137.93L89.4375 118.421ZM82.0029 111.423C80.5522 112.245 78.8135 112.074 76.7762 110.901C74.7495 109.727 73.0002 107.893 71.5602 105.396C70.1095 102.9 69.3842 100.479 69.3842 98.1538C69.3842 95.8285 70.1095 94.239 71.5602 93.407C73.0002 92.5857 74.7495 92.7565 76.7762 93.9298C78.8135 95.1031 80.5522 96.9377 82.0029 99.4443C83.4535 101.94 84.1682 104.351 84.1682 106.687C84.1682 109.023 83.4535 110.602 82.0029 111.423Z" stroke="url(#paint7_linear_181_10133)" stroke-width="2" stroke-linecap="round" stroke-linejoin="round"/>
  <path d="M84.1707 106.687C84.1707 109.023 83.4561 110.601 82.0054 111.422C80.5547 112.244 78.8161 112.073 76.7787 110.9C74.7521 109.726 73.0027 107.893 71.5627 105.396C70.1121 102.9 69.3867 100.479 69.3867 98.1535C69.3867 95.8281 70.1121 94.2387 71.5627 93.4067C73.0027 92.5854 74.7521 92.7561 76.7787 93.9295C78.8161 95.1028 80.5547 96.9375 82.0054 99.4441C83.4561 101.94 84.1707 104.351 84.1707 106.687Z" stroke="url(#paint8_linear_181_10133)" stroke-width="2" stroke-linecap="round" stroke-linejoin="round"/>
  <path d="M112.907 100.287C112.907 101.919 112.715 103.349 112.353 104.586C111.979 105.813 111.457 106.88 110.774 107.754L89.4407 118.421C90.1234 117.546 90.6461 116.48 91.0194 115.253C91.3821 114.016 91.5741 112.586 91.5741 110.954C91.5741 107.296 90.6781 103.541 88.8967 99.6685C88.4061 98.6125 87.8514 97.5353 87.2221 96.458C86.8274 95.7753 86.4114 95.1139 85.9954 94.4739C83.3607 90.4845 80.2887 87.4765 76.7794 85.4499C74.6141 84.2019 72.6087 83.5085 70.7741 83.4019C69.4834 83.3165 68.2674 83.53 67.1367 84.01L71.4887 81.8339L87.6701 73.738C90.5714 72.0846 94.0487 72.4365 98.1127 74.7832C102.177 77.1299 105.665 80.7993 108.555 85.7913C111.457 90.794 112.907 95.626 112.907 100.287Z" stroke="url(#paint9_linear_181_10133)" stroke-width="2" stroke-linecap="round" stroke-linejoin="round"/>
  <path d="M122.141 127.265L100.808 137.931L89.4375 118.422L110.771 107.755L122.141 127.265Z" stroke="url(#paint10_linear_181_10133)" stroke-width="2" stroke-linecap="round" stroke-linejoin="round"/>
  <path d="M95.6367 140.875L116.97 130.208" stroke="url(#paint11_linear_181_10133)" stroke-width="2" stroke-linecap="round" stroke-linejoin="round"/>
  <defs>
    <linearGradient id="paint0_linear_181_10133" x1="21.334" y1="32.2772" x2="50.902" y2="32.2772" gradientUnits="userSpaceOnUse">
      <stop stop-color="white"/>
      <stop offset="1" stop-color="#999999"/>
    </linearGradient>
    <linearGradient id="paint1_linear_181_10133" x1="116.812" y1="128.736" x2="122.146" y2="128.736" gradientUnits="userSpaceOnUse">
      <stop stop-color="white"/>
      <stop offset="1" stop-color="#999999"/>
    </linearGradient>
    <linearGradient id="paint2_linear_181_10133" x1="21.334" y1="78.9398" x2="50.902" y2="78.9398" gradientUnits="userSpaceOnUse">
      <stop stop-color="white"/>
      <stop offset="1" stop-color="#999999"/>
    </linearGradient>
    <linearGradient id="paint3_linear_181_10133" x1="61.9922" y1="55.7595" x2="91.5709" y2="55.7595" gradientUnits="userSpaceOnUse">
      <stop stop-color="white"/>
      <stop offset="1" stop-color="#999999"/>
    </linearGradient>
    <linearGradient id="paint4_linear_181_10133" x1="26.4316" y1="26.4317" x2="72.2343" y2="26.4317" gradientUnits="userSpaceOnUse">
      <stop stop-color="white"/>
      <stop offset="1" stop-color="#999999"/>
    </linearGradient>
    <linearGradient id="paint5_linear_181_10133" x1="26.3555" y1="73.0933" x2="72.2328" y2="73.0933" gradientUnits="userSpaceOnUse">
      <stop stop-color="white"/>
      <stop offset="1" stop-color="#999999"/>
    </linearGradient>
    <linearGradient id="paint6_linear_181_10133" x1="67.0195" y1="49.9124" x2="112.908" y2="49.9124" gradientUnits="userSpaceOnUse">
      <stop stop-color="white"/>
      <stop offset="1" stop-color="#999999"/>
    </linearGradient>
    <linearGradient id="paint7_linear_181_10133" x1="61.9922" y1="112.129" x2="100.808" y2="112.129" gradientUnits="userSpaceOnUse">
      <stop stop-color="white"/>
      <stop offset="1" stop-color="#999999"/>
    </linearGradient>
    <linearGradient id="paint8_linear_181_10133" x1="69.3867" y1="102.414" x2="84.1707" y2="102.414" gradientUnits="userSpaceOnUse">
      <stop stop-color="white"/>
      <stop offset="1" stop-color="#999999"/>
    </linearGradient>
    <linearGradient id="paint9_linear_181_10133" x1="67.1367" y1="95.568" x2="112.907" y2="95.568" gradientUnits="userSpaceOnUse">
      <stop stop-color="white"/>
      <stop offset="1" stop-color="#999999"/>
    </linearGradient>
    <linearGradient id="paint10_linear_181_10133" x1="89.4375" y1="122.843" x2="122.141" y2="122.843" gradientUnits="userSpaceOnUse">
      <stop stop-color="white"/>
      <stop offset="1" stop-color="#999999"/>
    </linearGradient>
    <linearGradient id="paint11_linear_181_10133" x1="95.6367" y1="135.542" x2="116.97" y2="135.542" gradientUnits="userSpaceOnUse">
      <stop stop-color="white"/>
      <stop offset="1" stop-color="#999999"/>
    </linearGradient>
  </defs>
</svg>