<svg xmlns="http://www.w3.org/2000/svg" width="144" height="144" viewBox="0 0 144 144" fill="none">
  <path d="M39.5882 105.597C38.6851 104.047 37.5747 102.888 36.2446 102.131C35.0608 101.436 34.0234 101.265 33.1814 101.606L32.913 101.741C32.01 102.253 31.5586 103.278 31.5586 104.804C31.5586 106.329 32.01 107.855 32.913 109.404C33.8039 110.954 34.9266 112.114 36.2446 112.882C37.5747 113.651 38.6851 113.773 39.5882 113.261C40.4912 112.748 40.9429 111.735 40.9429 110.21C40.9429 108.684 40.4912 107.147 39.5882 105.597Z" stroke="url(#paint0_linear_181_10216)" stroke-width="2" stroke-linecap="round" stroke-linejoin="round"/>
  <path d="M87.802 137.264C87.802 138.79 87.3506 139.815 86.4597 140.328C85.5567 140.84 84.4462 140.706 83.116 139.937L50.3132 120.997C48.983 120.229 47.8725 119.082 46.9694 117.532C46.0664 115.982 45.627 114.444 45.627 112.919C45.627 111.393 46.0664 110.381 46.9694 109.868L47.2501 109.734C48.0922 109.392 49.1172 109.551 50.3132 110.246L83.116 129.186C84.4462 129.955 85.5567 131.114 86.4597 132.664C87.3506 134.214 87.802 135.751 87.802 137.264Z" stroke="url(#paint1_linear_181_10216)" stroke-width="2" stroke-linecap="round" stroke-linejoin="round"/>
  <path d="M78.4304 115.726C78.4304 117.251 77.9788 118.264 77.0879 118.777C76.1849 119.289 75.0744 119.167 73.7442 118.398L53.4013 106.659L53.1206 106.488L39.3308 98.5314L31.5573 94.0405C30.2394 93.2717 29.1166 92.1124 28.2258 90.5625C27.3227 89.0249 26.8711 87.4873 26.8711 85.9619C26.8711 84.4365 27.3227 83.4114 28.2258 82.8988L28.4943 82.7646C29.3485 82.4351 30.3736 82.5937 31.5573 83.2893L49.3252 93.5402L58.4411 98.7998L62.8711 101.363L63.1152 101.497L63.3835 101.655L72.475 106.903L73.7442 107.635C74.5618 108.111 75.3063 108.733 75.9653 109.514C76.368 109.99 76.7462 110.527 77.0879 111.113C77.9788 112.663 78.4304 114.201 78.4304 115.726Z" stroke="url(#paint2_linear_181_10216)" stroke-width="2" stroke-linecap="round" stroke-linejoin="round"/>
  <path d="M112.209 125.062C112.209 126.587 111.757 127.612 110.866 128.125L110.598 128.259L86.4596 140.328C87.3505 139.816 87.8019 138.791 87.8019 137.265C87.8019 135.74 87.3505 134.214 86.4596 132.665C85.5566 131.115 84.4461 129.955 83.1159 129.187L50.3131 110.247C49.1171 109.552 48.092 109.393 47.25 109.735L53.4005 106.66L73.7434 118.399C75.0736 119.168 76.1841 119.29 77.0872 118.778L85.0805 114.775L91.4873 111.578H91.4995C91.6215 111.614 91.7436 111.651 91.8778 111.663L85.3489 114.934L84.7265 115.239L84.4581 115.373C83.5673 115.885 83.1159 116.911 83.1159 118.436C83.1159 119.961 83.5673 121.487 84.4581 123.036C85.3612 124.586 86.4717 125.745 87.8019 126.514C89.132 127.283 90.2424 127.405 91.1455 126.892L99.1388 122.89L108.926 118.009C109.658 118.68 110.305 119.498 110.866 120.462C111.757 122.012 112.209 123.549 112.209 125.062Z" stroke="url(#paint3_linear_181_10216)" stroke-width="2" stroke-linecap="round" stroke-linejoin="round"/>
  <path d="M91.4879 111.577L85.0811 114.775L77.0878 118.777C77.9786 118.265 78.4303 117.252 78.4303 115.727C78.4303 114.201 77.9786 112.663 77.0878 111.114C76.7461 110.528 76.3679 109.991 75.9652 109.515C75.3062 108.734 74.5617 108.112 73.7441 107.636L72.4749 106.903L63.3834 101.656L63.115 101.497L62.871 101.363L58.441 98.8004L49.3251 93.5407L31.5572 83.2899C30.3735 82.5943 29.3484 82.4357 28.4941 82.7652L34.9009 79.5557C36.0969 80.4343 37.3294 81.2397 38.5863 81.9719L54.3042 91.0391L55.9884 92.0153L65.3239 97.397L68.3747 99.1665L70.0586 100.143L85.4594 109.027C87.595 110.259 89.5842 111.114 91.4879 111.577Z" stroke="url(#paint4_linear_181_10216)" stroke-width="2" stroke-linecap="round" stroke-linejoin="round"/>
  <path d="M57.1871 8.03116L40.9688 16.1464L40.6392 16.305C39.7361 16.7322 38.8941 17.2691 38.1131 17.9159C37.027 18.7823 36.063 19.8562 35.1966 21.1132C29.9247 18.8922 25.3484 18.6603 21.4922 20.442L45.2644 8.54371L45.8256 8.26302C49.0961 6.7376 52.8915 6.65217 57.1871 8.03116Z" stroke="url(#paint5_linear_181_10216)" stroke-width="2" stroke-linecap="round" stroke-linejoin="round"/>
  <path d="M116.895 111.639C116.895 113.164 116.443 114.177 115.552 114.69L115.272 114.824L108.926 118.009L99.1389 122.89L91.1455 126.893C92.0364 126.38 92.488 125.367 92.488 123.842C92.488 122.316 92.0364 120.779 91.1455 119.229C90.8039 118.644 90.4257 118.107 90.023 117.631C89.364 116.85 88.6196 116.227 87.8019 115.764C86.9843 115.288 86.252 115.056 85.593 115.068C85.3001 115.068 85.0072 115.129 84.7266 115.239L85.3489 114.934L91.8779 111.663C94.1355 112.176 96.2222 112.139 98.1381 111.566C98.9191 111.334 99.6636 111.004 100.384 110.589H100.396C100.396 110.589 100.433 110.577 100.457 110.553C100.957 110.309 103.898 108.844 107.571 107.002C109.329 106.123 111.257 105.159 113.173 104.219C114.088 104.927 114.881 105.867 115.552 107.026C116.443 108.576 116.895 110.113 116.895 111.639Z" stroke="url(#paint6_linear_181_10216)" stroke-width="2" stroke-linecap="round" stroke-linejoin="round"/>
  <path d="M130.956 84.8036C130.956 91.5277 128.906 96.0551 124.806 98.386C124.806 98.386 124.391 98.5934 123.683 98.9473C121.731 99.9236 117.508 102.047 113.176 104.219C111.26 105.159 109.332 106.123 107.575 107.002C103.901 108.844 100.961 110.309 100.46 110.553C102.608 109.32 104.182 107.465 105.195 105.012C106.098 102.816 106.55 100.155 106.55 97.007C106.55 96.2992 106.525 95.5792 106.476 94.8714C106.122 89.1724 104.304 83.3636 101.046 77.4206C97.3727 70.7331 92.8451 65.5587 87.4512 61.9099L111.858 49.7065C117.252 53.3554 121.779 58.5297 125.453 65.2172C129.126 71.9046 130.956 78.4334 130.956 84.8036Z" stroke="url(#paint7_linear_181_10216)" stroke-width="2" stroke-linecap="round" stroke-linejoin="round"/>
  <path d="M111.858 49.7057L87.4512 61.9091C86.3651 53.5742 83.2166 45.3247 78.018 37.1728C72.8316 29.021 66.7177 22.9071 59.6885 18.8555C54.5265 15.8779 49.7795 14.5844 45.4473 14.9993C43.8242 15.1579 42.3355 15.5362 40.9688 16.1464L57.1871 8.0311L64.692 4.27247L65.1437 4.0406C66.5715 3.38162 68.1456 2.96668 69.8541 2.79583C74.1863 2.38092 78.9332 3.67448 84.0953 6.6521C91.1244 10.7036 97.2383 16.8176 102.425 24.9694C107.623 33.1213 110.772 41.3708 111.858 49.7057Z" stroke="url(#paint8_linear_181_10216)" stroke-width="2" stroke-linecap="round" stroke-linejoin="round"/>
  <path d="M92.4873 123.841C92.4873 125.366 92.0357 126.379 91.1448 126.891C90.2418 127.404 89.1314 127.282 87.8012 126.513C86.471 125.744 85.3605 124.585 84.4575 123.035C83.5666 121.486 83.1152 119.948 83.1152 118.435C83.1152 116.922 83.5666 115.884 84.4575 115.372L84.7258 115.238C85.0065 115.128 85.2994 115.067 85.5923 115.067C86.2513 115.055 86.9836 115.287 87.8012 115.762C88.6188 116.226 89.3632 116.849 90.0222 117.63C90.4249 118.106 90.8031 118.642 91.1448 119.228C92.0357 120.778 92.4873 122.315 92.4873 123.841Z" stroke="url(#paint9_linear_181_10216)" stroke-width="2" stroke-linecap="round" stroke-linejoin="round"/>
  <path d="M53.1196 106.488L39.5859 113.261" stroke="url(#paint10_linear_181_10216)" stroke-width="2" stroke-linecap="round" stroke-linejoin="round"/>
  <path d="M39.3311 98.5312L33.1805 101.607L32.9121 101.741" stroke="url(#paint11_linear_181_10216)" stroke-width="2" stroke-linecap="round" stroke-linejoin="round"/>
  <path d="M65.1391 4.0415L64.6875 4.27338" stroke="url(#paint12_linear_181_10216)" stroke-width="2" stroke-linecap="round" stroke-linejoin="round"/>
  <path d="M106.549 97.0062C106.549 100.155 106.097 102.815 105.194 104.999C104.181 107.465 102.607 109.319 100.459 110.552C100.435 110.576 100.41 110.589 100.398 110.589H100.386C99.666 111.004 98.9214 111.333 98.1404 111.565C96.2245 112.138 94.1378 112.175 91.8802 111.662C91.746 111.65 91.6239 111.614 91.5019 111.577H91.4897C89.586 111.113 87.5968 110.259 85.4612 109.027L70.0604 100.142L68.3765 99.1662L65.3256 97.3967L55.9902 92.015L54.306 91.0388L38.5881 81.9716C37.3312 81.2394 36.0986 80.434 34.9027 79.5554C29.3624 75.5161 24.5174 69.9269 20.3683 62.7757C15.3405 54.0869 12.8145 45.6666 12.8145 37.5025C12.8145 30.0706 14.9623 24.811 19.2579 21.7357C19.7582 21.3818 20.2708 21.0523 20.8077 20.7839L21.4912 20.4422C25.3475 18.6605 29.9237 18.8923 35.1956 21.1133C36.062 19.8564 37.026 18.7825 38.1121 17.9161C38.8931 17.2693 39.7351 16.7323 40.6382 16.3052L40.9678 16.1466C42.3346 15.5364 43.8233 15.1581 45.4463 14.9994C49.7785 14.5845 54.5255 15.8781 59.6876 18.8557C66.7167 22.9072 72.8306 29.0211 78.017 37.173C83.2157 45.3249 86.3642 53.5744 87.4503 61.9093C92.8442 65.5581 97.3717 70.7323 101.045 77.4198C104.303 83.3628 106.122 89.1716 106.475 94.8706C106.524 95.5784 106.549 96.2984 106.549 97.0062Z" stroke="url(#paint13_linear_181_10216)" stroke-width="2" stroke-linecap="round" stroke-linejoin="round"/>
  <defs>
    <linearGradient id="paint0_linear_181_10216" x1="31.5586" y1="107.503" x2="40.9429" y2="107.503" gradientUnits="userSpaceOnUse">
      <stop stop-color="white"/>
      <stop offset="1" stop-color="#999999"/>
    </linearGradient>
    <linearGradient id="paint1_linear_181_10216" x1="45.627" y1="125.096" x2="87.802" y2="125.096" gradientUnits="userSpaceOnUse">
      <stop stop-color="white"/>
      <stop offset="1" stop-color="#999999"/>
    </linearGradient>
    <linearGradient id="paint2_linear_181_10216" x1="26.8711" y1="100.843" x2="78.4304" y2="100.843" gradientUnits="userSpaceOnUse">
      <stop stop-color="white"/>
      <stop offset="1" stop-color="#999999"/>
    </linearGradient>
    <linearGradient id="paint3_linear_181_10216" x1="47.25" y1="123.494" x2="112.209" y2="123.494" gradientUnits="userSpaceOnUse">
      <stop stop-color="white"/>
      <stop offset="1" stop-color="#999999"/>
    </linearGradient>
    <linearGradient id="paint4_linear_181_10216" x1="28.4941" y1="99.1665" x2="91.4879" y2="99.1665" gradientUnits="userSpaceOnUse">
      <stop stop-color="white"/>
      <stop offset="1" stop-color="#999999"/>
    </linearGradient>
    <linearGradient id="paint5_linear_181_10216" x1="21.4922" y1="14.0839" x2="57.1871" y2="14.0839" gradientUnits="userSpaceOnUse">
      <stop stop-color="white"/>
      <stop offset="1" stop-color="#999999"/>
    </linearGradient>
    <linearGradient id="paint6_linear_181_10216" x1="84.7266" y1="115.556" x2="116.895" y2="115.556" gradientUnits="userSpaceOnUse">
      <stop stop-color="white"/>
      <stop offset="1" stop-color="#999999"/>
    </linearGradient>
    <linearGradient id="paint7_linear_181_10216" x1="87.4512" y1="80.1297" x2="130.956" y2="80.1297" gradientUnits="userSpaceOnUse">
      <stop stop-color="white"/>
      <stop offset="1" stop-color="#999999"/>
    </linearGradient>
    <linearGradient id="paint8_linear_181_10216" x1="40.9688" y1="32.3147" x2="111.858" y2="32.3147" gradientUnits="userSpaceOnUse">
      <stop stop-color="white"/>
      <stop offset="1" stop-color="#999999"/>
    </linearGradient>
    <linearGradient id="paint9_linear_181_10216" x1="83.1152" y1="121.134" x2="92.4873" y2="121.134" gradientUnits="userSpaceOnUse">
      <stop stop-color="white"/>
      <stop offset="1" stop-color="#999999"/>
    </linearGradient>
    <linearGradient id="paint10_linear_181_10216" x1="39.5859" y1="109.875" x2="53.1196" y2="109.875" gradientUnits="userSpaceOnUse">
      <stop stop-color="white"/>
      <stop offset="1" stop-color="#999999"/>
    </linearGradient>
    <linearGradient id="paint11_linear_181_10216" x1="32.9121" y1="100.136" x2="39.3311" y2="100.136" gradientUnits="userSpaceOnUse">
      <stop stop-color="white"/>
      <stop offset="1" stop-color="#999999"/>
    </linearGradient>
    <linearGradient id="paint12_linear_181_10216" x1="64.6875" y1="4.15744" x2="65.1391" y2="4.15744" gradientUnits="userSpaceOnUse">
      <stop stop-color="white"/>
      <stop offset="1" stop-color="#999999"/>
    </linearGradient>
    <linearGradient id="paint13_linear_181_10216" x1="12.8145" y1="63.4732" x2="106.549" y2="63.4732" gradientUnits="userSpaceOnUse">
      <stop stop-color="white"/>
      <stop offset="1" stop-color="#999999"/>
    </linearGradient>
  </defs>
</svg>