<svg width="170" height="48" viewBox="0 0 170 48" fill="none" xmlns="http://www.w3.org/2000/svg">
<path d="M23.2334 23.707H29.333C29.3682 24.6738 29.2422 25.5586 28.9551 26.3613C28.668 27.1641 28.2578 27.8555 27.7246 28.4355C27.1914 29.0098 26.5498 29.458 25.7998 29.7803C25.0498 30.0967 24.2295 30.2549 23.3389 30.2549C22.7412 30.2549 22.167 30.1816 21.6162 30.0352C21.0654 29.8887 20.5498 29.6807 20.0693 29.4111C19.5947 29.1357 19.1582 28.8105 18.7598 28.4355C18.3672 28.0547 18.0303 27.6328 17.749 27.1699C17.4736 26.707 17.2568 26.209 17.0986 25.6758C16.9463 25.1426 16.8701 24.5859 16.8701 24.0059C16.8701 23.4258 16.9463 22.8691 17.0986 22.3359C17.2568 21.8027 17.4736 21.3047 17.749 20.8418C18.0303 20.3789 18.3672 19.96 18.7598 19.585C19.1582 19.2041 19.5947 18.8789 20.0693 18.6094C20.5498 18.3398 21.0654 18.1318 21.6162 17.9854C22.167 17.8389 22.7412 17.7656 23.3389 17.7656C24.2412 17.7656 25.0879 17.9268 25.8789 18.249C26.6699 18.5713 27.3818 19.0488 28.0146 19.6816L26.5732 21.1318C26.3916 20.9209 26.1865 20.7246 25.958 20.543C25.7295 20.3613 25.4775 20.2061 25.2021 20.0771C24.9326 19.9424 24.6396 19.8398 24.3232 19.7695C24.0127 19.6934 23.6846 19.6553 23.3389 19.6553C22.7471 19.6553 22.1904 19.7666 21.6689 19.9893C21.1533 20.2119 20.7021 20.5195 20.3154 20.9121C19.9287 21.2988 19.6211 21.7588 19.3926 22.292C19.1699 22.8252 19.0586 23.3994 19.0586 24.0146C19.0586 24.6299 19.1699 25.2041 19.3926 25.7373C19.6211 26.2646 19.9287 26.7246 20.3154 27.1172C20.7021 27.5039 21.1533 27.8086 21.6689 28.0312C22.1904 28.2539 22.7471 28.3652 23.3389 28.3652C23.9014 28.3652 24.4023 28.292 24.8418 28.1455C25.2871 27.999 25.668 27.7939 25.9844 27.5303C26.3008 27.2607 26.5557 26.9385 26.749 26.5635C26.9424 26.1885 27.0742 25.7725 27.1445 25.3154H23.2246L23.2334 23.707ZM31.3457 25.4824C31.3457 24.8203 31.4688 24.1992 31.7148 23.6191C31.9609 23.0332 32.3037 22.5234 32.7432 22.0898C33.1885 21.6562 33.7158 21.3135 34.3252 21.0615C34.9346 20.8096 35.5996 20.6836 36.3203 20.6836C37.0469 20.6836 37.7148 20.8096 38.3242 21.0615C38.9395 21.3135 39.4668 21.6562 39.9062 22.0898C40.3516 22.5234 40.6973 23.0332 40.9434 23.6191C41.1953 24.1992 41.3213 24.8203 41.3213 25.4824C41.3213 25.6289 41.3154 25.7461 41.3037 25.834C41.292 25.9219 41.2803 26.0068 41.2686 26.0889H33.4463C33.5166 26.458 33.6426 26.792 33.8242 27.0908C34.0117 27.3896 34.2344 27.6445 34.4922 27.8555C34.7559 28.0605 35.0459 28.2217 35.3623 28.3389C35.6787 28.4502 36.0039 28.5059 36.3379 28.5059C36.8652 28.5059 37.3311 28.3887 37.7354 28.1543C38.1396 27.9199 38.4473 27.6123 38.6582 27.2314H40.9697C40.8232 27.6299 40.6094 28.0137 40.3281 28.3828C40.0469 28.7461 39.707 29.0684 39.3086 29.3496C38.916 29.6309 38.4678 29.8535 37.9639 30.0176C37.4658 30.1875 36.918 30.2725 36.3203 30.2725C35.5996 30.2725 34.9346 30.1465 34.3252 29.8945C33.7158 29.6426 33.1885 29.2998 32.7432 28.8662C32.3037 28.4326 31.9609 27.9258 31.7148 27.3457C31.4688 26.7656 31.3457 26.1445 31.3457 25.4824ZM36.3379 22.3975C35.9746 22.3975 35.6377 22.4531 35.3271 22.5645C35.0225 22.6699 34.7471 22.8193 34.501 23.0127C34.2607 23.2061 34.0557 23.4375 33.8857 23.707C33.7158 23.9707 33.5898 24.2607 33.5078 24.5771H39.0713C38.9893 24.2607 38.8662 23.9707 38.7021 23.707C38.5381 23.4375 38.3389 23.2061 38.1045 23.0127C37.8701 22.8193 37.6035 22.6699 37.3047 22.5645C37.0117 22.4531 36.6895 22.3975 36.3379 22.3975ZM44.6699 18.3896L46.2344 18.3809V20.9561H49.1172V22.8018H46.2256V26.502C46.2256 26.8652 46.2666 27.167 46.3486 27.4072C46.4365 27.6416 46.5508 27.8291 46.6914 27.9697C46.8379 28.1045 47.0078 28.2012 47.2012 28.2598C47.3945 28.3125 47.5996 28.3389 47.8164 28.3389H49.3633L49.3457 30.0967H47.6143C47.1279 30.0967 46.6709 30.0469 46.2432 29.9473C45.8154 29.8477 45.4434 29.666 45.127 29.4023C44.8105 29.1328 44.5586 28.7666 44.3711 28.3037C44.1895 27.8408 44.0986 27.2461 44.0986 26.5195V22.8018H42.5869V21.1494L44.0459 20.7451L44.6699 18.3896ZM57.1592 26.4053C57.1592 26.6807 57.2236 26.9385 57.3525 27.1787C57.4814 27.4189 57.6631 27.6299 57.8975 27.8115C58.1318 27.9873 58.4131 28.1279 58.7412 28.2334C59.0693 28.333 59.4326 28.3828 59.8311 28.3828C60.7803 28.3828 61.4775 28.2334 61.9229 27.9346C62.3682 27.6299 62.5908 27.1992 62.5908 26.6426C62.5908 26.3027 62.5146 26.0273 62.3623 25.8164C62.21 25.5996 61.9932 25.418 61.7119 25.2715C61.4365 25.125 61.1055 25.002 60.7188 24.9023C60.332 24.8027 59.9072 24.7002 59.4443 24.5947C59.1924 24.542 58.917 24.4863 58.6182 24.4277C58.3252 24.3633 58.0264 24.2812 57.7217 24.1816C57.4229 24.082 57.1328 23.9619 56.8516 23.8213C56.5703 23.6748 56.3213 23.4961 56.1045 23.2852C55.8936 23.0684 55.7207 22.8164 55.5859 22.5293C55.457 22.2363 55.3926 21.8906 55.3926 21.4922C55.3926 20.9473 55.4805 20.4463 55.6562 19.9893C55.832 19.5322 56.1104 19.1396 56.4912 18.8115C56.8721 18.4834 57.3613 18.2285 57.959 18.0469C58.5566 17.8594 59.2773 17.7656 60.1211 17.7656C60.7949 17.7656 61.3926 17.8535 61.9141 18.0293C62.4414 18.1992 62.8867 18.4424 63.25 18.7588C63.6133 19.0752 63.8887 19.4561 64.0762 19.9014C64.2695 20.3408 64.3662 20.8301 64.3662 21.3691H62.1689C62.1689 21.1289 62.1221 20.9062 62.0283 20.7012C61.9346 20.4961 61.7939 20.3174 61.6064 20.165C61.4248 20.0127 61.1934 19.8926 60.9121 19.8047C60.6309 19.7168 60.3027 19.6729 59.9277 19.6729C59.4648 19.6729 59.0811 19.7197 58.7764 19.8135C58.4775 19.9072 58.2373 20.0303 58.0557 20.1826C57.8799 20.3291 57.7568 20.499 57.6865 20.6924C57.6162 20.8857 57.5811 21.082 57.5811 21.2812C57.5811 21.5449 57.6543 21.7705 57.8008 21.958C57.9473 22.1396 58.1494 22.2949 58.4072 22.4238C58.665 22.5469 58.9697 22.6494 59.3213 22.7314C59.6787 22.8135 60.0684 22.8838 60.4902 22.9424C61.0586 23.0654 61.6035 23.209 62.125 23.373C62.6465 23.5312 63.1035 23.748 63.4961 24.0234C63.8945 24.293 64.2109 24.6387 64.4453 25.0605C64.6855 25.4766 64.8057 26.0039 64.8057 26.6426C64.8057 27.2227 64.6826 27.7383 64.4365 28.1895C64.1963 28.6406 63.8564 29.0215 63.417 29.332C62.9775 29.6367 62.4502 29.8682 61.835 30.0264C61.2197 30.1904 60.5371 30.2725 59.7871 30.2725C58.9609 30.2725 58.2432 30.1582 57.6338 29.9297C57.0303 29.7012 56.5293 29.4053 56.1309 29.042C55.7383 28.6729 55.4453 28.2598 55.252 27.8027C55.0645 27.3398 54.9707 26.874 54.9707 26.4053H57.1592ZM68.084 18.3896L69.6484 18.3809V20.9561H72.5312V22.8018H69.6396V26.502C69.6396 26.8652 69.6807 27.167 69.7627 27.4072C69.8506 27.6416 69.9648 27.8291 70.1055 27.9697C70.252 28.1045 70.4219 28.2012 70.6152 28.2598C70.8086 28.3125 71.0137 28.3389 71.2305 28.3389H72.7773L72.7598 30.0967H71.0283C70.542 30.0967 70.085 30.0469 69.6572 29.9473C69.2295 29.8477 68.8574 29.666 68.541 29.4023C68.2246 29.1328 67.9727 28.7666 67.7852 28.3037C67.6035 27.8408 67.5127 27.2461 67.5127 26.5195V22.8018H66.001V21.1494L67.46 20.7451L68.084 18.3896ZM74.4648 25.4824C74.4648 24.8203 74.5791 24.1992 74.8076 23.6191C75.042 23.0332 75.3701 22.5234 75.792 22.0898C76.2197 21.6562 76.7295 21.3135 77.3213 21.0615C77.9189 20.8096 78.5811 20.6836 79.3076 20.6836C79.6475 20.6836 79.9697 20.7188 80.2744 20.7891C80.585 20.8535 80.875 20.9443 81.1445 21.0615C81.4141 21.1729 81.6602 21.3076 81.8828 21.4658C82.1113 21.6182 82.3135 21.7793 82.4893 21.9492L82.6123 20.9561H84.4404V30H82.6123L82.4893 29.0068C82.3076 29.1826 82.1025 29.3467 81.874 29.499C81.6455 29.6514 81.3965 29.7861 81.127 29.9033C80.8633 30.0146 80.5762 30.1025 80.2656 30.167C79.9609 30.2373 79.6387 30.2725 79.2988 30.2725C78.5781 30.2725 77.9189 30.1494 77.3213 29.9033C76.7295 29.6514 76.2227 29.3086 75.8008 28.875C75.3789 28.4414 75.0508 27.9346 74.8164 27.3545C74.582 26.7686 74.4648 26.1445 74.4648 25.4824ZM76.6006 25.4736C76.6006 25.9072 76.6768 26.3057 76.8291 26.6689C76.9814 27.0322 77.1895 27.3457 77.4531 27.6094C77.7168 27.8672 78.0244 28.0693 78.376 28.2158C78.7275 28.3564 79.1055 28.4268 79.5098 28.4268C79.9082 28.4268 80.2832 28.3564 80.6348 28.2158C80.9863 28.0693 81.291 27.8672 81.5488 27.6094C81.8125 27.3457 82.0205 27.0352 82.1729 26.6777C82.3252 26.3145 82.4014 25.9131 82.4014 25.4736C82.4014 25.0459 82.3252 24.6533 82.1729 24.2959C82.0205 23.9326 81.8125 23.6221 81.5488 23.3643C81.2852 23.1064 80.9775 22.9043 80.626 22.7578C80.2744 22.6113 79.8965 22.5381 79.4922 22.5381C79.0879 22.5381 78.71 22.6113 78.3584 22.7578C78.0068 22.8984 77.6992 23.1006 77.4355 23.3643C77.1777 23.6221 76.9727 23.9326 76.8203 24.2959C76.6738 24.6533 76.6006 25.0459 76.6006 25.4736ZM93.2646 22.8281L92.2012 22.8369C91.7852 22.8369 91.4102 22.8984 91.0762 23.0215C90.7422 23.1387 90.4551 23.3174 90.2148 23.5576C89.9805 23.792 89.7988 24.0879 89.6699 24.4453C89.5469 24.7969 89.4854 25.2041 89.4854 25.667V30H87.3496V20.9561H89.0811L89.2744 22.0371C89.5791 21.7266 89.9629 21.4688 90.4258 21.2637C90.8945 21.0586 91.4482 20.9561 92.0869 20.9561H93.2646V22.8281ZM96.209 18.3896L97.7734 18.3809V20.9561H100.656V22.8018H97.7646V26.502C97.7646 26.8652 97.8057 27.167 97.8877 27.4072C97.9756 27.6416 98.0898 27.8291 98.2305 27.9697C98.377 28.1045 98.5469 28.2012 98.7402 28.2598C98.9336 28.3125 99.1387 28.3389 99.3555 28.3389H100.902L100.885 30.0967H99.1533C98.667 30.0967 98.21 30.0469 97.7822 29.9473C97.3545 29.8477 96.9824 29.666 96.666 29.4023C96.3496 29.1328 96.0977 28.7666 95.9102 28.3037C95.7285 27.8408 95.6377 27.2461 95.6377 26.5195V22.8018H94.126V21.1494L95.585 20.7451L96.209 18.3896ZM102.607 25.4824C102.607 24.8203 102.73 24.1992 102.977 23.6191C103.223 23.0332 103.565 22.5234 104.005 22.0898C104.45 21.6562 104.978 21.3135 105.587 21.0615C106.196 20.8096 106.861 20.6836 107.582 20.6836C108.309 20.6836 108.977 20.8096 109.586 21.0615C110.201 21.3135 110.729 21.6562 111.168 22.0898C111.613 22.5234 111.959 23.0332 112.205 23.6191C112.457 24.1992 112.583 24.8203 112.583 25.4824C112.583 25.6289 112.577 25.7461 112.565 25.834C112.554 25.9219 112.542 26.0068 112.53 26.0889H104.708C104.778 26.458 104.904 26.792 105.086 27.0908C105.273 27.3896 105.496 27.6445 105.754 27.8555C106.018 28.0605 106.308 28.2217 106.624 28.3389C106.94 28.4502 107.266 28.5059 107.6 28.5059C108.127 28.5059 108.593 28.3887 108.997 28.1543C109.401 27.9199 109.709 27.6123 109.92 27.2314H112.231C112.085 27.6299 111.871 28.0137 111.59 28.3828C111.309 28.7461 110.969 29.0684 110.57 29.3496C110.178 29.6309 109.729 29.8535 109.226 30.0176C108.728 30.1875 108.18 30.2725 107.582 30.2725C106.861 30.2725 106.196 30.1465 105.587 29.8945C104.978 29.6426 104.45 29.2998 104.005 28.8662C103.565 28.4326 103.223 27.9258 102.977 27.3457C102.73 26.7656 102.607 26.1445 102.607 25.4824ZM107.6 22.3975C107.236 22.3975 106.899 22.4531 106.589 22.5645C106.284 22.6699 106.009 22.8193 105.763 23.0127C105.522 23.2061 105.317 23.4375 105.147 23.707C104.978 23.9707 104.852 24.2607 104.77 24.5771H110.333C110.251 24.2607 110.128 23.9707 109.964 23.707C109.8 23.4375 109.601 23.2061 109.366 23.0127C109.132 22.8193 108.865 22.6699 108.566 22.5645C108.273 22.4531 107.951 22.3975 107.6 22.3975ZM114.332 25.4824C114.332 24.8203 114.446 24.1992 114.675 23.6191C114.903 23.0332 115.226 22.5234 115.642 22.0898C116.063 21.6504 116.57 21.3047 117.162 21.0527C117.754 20.8008 118.41 20.6748 119.131 20.6748C119.781 20.6748 120.358 20.7832 120.862 21C121.366 21.2168 121.803 21.4922 122.172 21.8262V17.6162H124.308V30H122.479L122.348 28.9453C122.166 29.1328 121.961 29.3086 121.732 29.4727C121.51 29.6309 121.264 29.7715 120.994 29.8945C120.725 30.0117 120.438 30.1055 120.133 30.1758C119.828 30.2461 119.506 30.2812 119.166 30.2812C118.445 30.2812 117.786 30.1553 117.188 29.9033C116.597 29.6514 116.09 29.3086 115.668 28.875C115.246 28.4414 114.918 27.9346 114.684 27.3545C114.449 26.7686 114.332 26.1445 114.332 25.4824ZM116.468 25.4736C116.468 25.9072 116.544 26.3057 116.696 26.6689C116.849 27.0322 117.057 27.3457 117.32 27.6094C117.584 27.8672 117.892 28.0693 118.243 28.2158C118.595 28.3564 118.973 28.4268 119.377 28.4268C119.775 28.4268 120.15 28.3564 120.502 28.2158C120.854 28.0693 121.158 27.8672 121.416 27.6094C121.68 27.3457 121.888 27.0352 122.04 26.6777C122.192 26.3145 122.269 25.9131 122.269 25.4736C122.269 25.0459 122.192 24.6533 122.04 24.2959C121.888 23.9326 121.68 23.6221 121.416 23.3643C121.152 23.1064 120.845 22.9043 120.493 22.7578C120.142 22.6113 119.764 22.5381 119.359 22.5381C118.955 22.5381 118.577 22.6113 118.226 22.7578C117.874 22.8984 117.566 23.1006 117.303 23.3643C117.045 23.6221 116.84 23.9326 116.688 24.2959C116.541 24.6533 116.468 25.0459 116.468 25.4736Z" fill="#FF7D12"/>
<path d="M148.75 18V27.75C148.75 27.9489 148.671 28.1397 148.531 28.2803C148.39 28.421 148.199 28.5 148 28.5C147.802 28.5 147.611 28.421 147.47 28.2803C147.329 28.1397 147.25 27.9489 147.25 27.75V19.8103L136.531 30.5306C136.39 30.6714 136.199 30.7504 136 30.7504C135.801 30.7504 135.611 30.6714 135.47 30.5306C135.329 30.3899 135.25 30.199 135.25 30C135.25 29.801 135.329 29.6101 135.47 29.4694L146.19 18.75H138.25C138.052 18.75 137.861 18.671 137.72 18.5303C137.579 18.3897 137.5 18.1989 137.5 18C137.5 17.8011 137.579 17.6103 137.72 17.4697C137.861 17.329 138.052 17.25 138.25 17.25H148C148.199 17.25 148.39 17.329 148.531 17.4697C148.671 17.6103 148.75 17.8011 148.75 18Z" fill="#FF7D12"/>
</svg>
