<svg width="24" height="25" viewBox="0 0 24 25" fill="none" xmlns="http://www.w3.org/2000/svg">
<path d="M18.7504 6.5V16.25C18.7504 16.4489 18.6714 16.6397 18.5307 16.7803C18.3901 16.921 18.1993 17 18.0004 17C17.8015 17 17.6107 16.921 17.4701 16.7803C17.3294 16.6397 17.2504 16.4489 17.2504 16.25V8.31031L6.53104 19.0306C6.39031 19.1714 6.19944 19.2504 6.00042 19.2504C5.80139 19.2504 5.61052 19.1714 5.46979 19.0306C5.32906 18.8899 5.25 18.699 5.25 18.5C5.25 18.301 5.32906 18.1101 5.46979 17.9694L16.1901 7.25H8.25042C8.0515 7.25 7.86074 7.17098 7.72009 7.03033C7.57943 6.88968 7.50042 6.69891 7.50042 6.5C7.50042 6.30109 7.57943 6.11032 7.72009 5.96967C7.86074 5.82902 8.0515 5.75 8.25042 5.75H18.0004C18.1993 5.75 18.3901 5.82902 18.5307 5.96967C18.6714 6.11032 18.7504 6.30109 18.7504 6.5Z" fill="#F7F7F7"/>
</svg>
