<svg width="1440" height="800" viewBox="0 0 1440 800" fill="none" xmlns="http://www.w3.org/2000/svg">
<g opacity="0.1">
<rect x="0.5" y="-84.5" width="133.104" height="133.104" stroke="#7C7C7C"/>
<rect x="133.605" y="-84.5" width="133.104" height="133.104" stroke="#7C7C7C"/>
<rect x="266.709" y="-84.5" width="133.104" height="133.104" stroke="#7C7C7C"/>
<rect x="399.812" y="-84.5" width="133.104" height="133.104" stroke="#7C7C7C"/>
<rect x="532.918" y="-84.5" width="133.104" height="133.104" stroke="#7C7C7C"/>
<rect x="666.023" y="-84.5" width="133.104" height="133.104" stroke="#7C7C7C"/>
<rect x="799.127" y="-84.5" width="133.104" height="133.104" stroke="#7C7C7C"/>
<rect x="932.23" y="-84.5" width="133.104" height="133.104" stroke="#7C7C7C"/>
<rect x="1065.34" y="-84.5" width="133.104" height="133.104" stroke="#7C7C7C"/>
<rect x="1198.44" y="-84.5" width="133.104" height="133.104" stroke="#7C7C7C"/>
<rect x="1331.54" y="-84.5" width="133.104" height="133.104" fill="white" fill-opacity="0.4"/>
<rect x="1331.54" y="-84.5" width="133.104" height="133.104" stroke="#7C7C7C"/>
<rect x="0.5" y="48.6045" width="133.104" height="133.104" stroke="#7C7C7C"/>
<rect x="133.605" y="48.6045" width="133.104" height="133.104" stroke="#7C7C7C"/>
<rect x="266.709" y="48.6045" width="133.104" height="133.104" stroke="#7C7C7C"/>
<rect x="399.812" y="48.6045" width="133.104" height="133.104" stroke="#7C7C7C"/>
<rect x="532.918" y="48.6045" width="133.104" height="133.104" stroke="#7C7C7C"/>
<rect x="666.023" y="48.6045" width="133.104" height="133.104" stroke="#7C7C7C"/>
<rect x="799.127" y="48.6045" width="133.104" height="133.104" stroke="#7C7C7C"/>
<rect x="932.23" y="48.6045" width="133.104" height="133.104" stroke="#7C7C7C"/>
<rect x="1065.34" y="48.6045" width="133.104" height="133.104" fill="#B7B7B7"/>
<rect x="1065.34" y="48.6045" width="133.104" height="133.104" stroke="#7C7C7C"/>
<rect x="1198.44" y="48.6045" width="133.104" height="133.104" stroke="#7C7C7C"/>
<rect x="1331.54" y="48.6045" width="133.104" height="133.104" stroke="#7C7C7C"/>
<rect x="0.5" y="181.709" width="133.104" height="133.104" fill="#B7B7B7"/>
<rect x="0.5" y="181.709" width="133.104" height="133.104" stroke="#7C7C7C"/>
<rect x="133.605" y="181.709" width="133.104" height="133.104" stroke="#7C7C7C"/>
<rect x="266.709" y="181.709" width="133.104" height="133.104" stroke="#7C7C7C"/>
<rect x="399.812" y="181.709" width="133.104" height="133.104" fill="white" fill-opacity="0.4"/>
<rect x="399.812" y="181.709" width="133.104" height="133.104" stroke="#7C7C7C"/>
<rect x="532.918" y="181.709" width="133.104" height="133.104" stroke="#7C7C7C"/>
<rect x="666.023" y="181.709" width="133.104" height="133.104" stroke="#7C7C7C"/>
<rect x="799.127" y="181.709" width="133.104" height="133.104" stroke="#7C7C7C"/>
<rect x="932.23" y="181.709" width="133.104" height="133.104" stroke="#7C7C7C"/>
<rect x="1065.34" y="181.709" width="133.104" height="133.104" stroke="#7C7C7C"/>
<rect x="1198.44" y="181.709" width="133.104" height="133.104" stroke="#7C7C7C"/>
<rect x="1331.54" y="181.709" width="133.104" height="133.104" stroke="#7C7C7C"/>
<rect x="0.5" y="314.813" width="133.104" height="133.104" fill="#B7B7B7"/>
<rect x="0.5" y="314.813" width="133.104" height="133.104" stroke="#7C7C7C"/>
<rect x="133.605" y="314.813" width="133.104" height="133.104" fill="#B7B7B7"/>
<rect x="133.605" y="314.813" width="133.104" height="133.104" stroke="#7C7C7C"/>
<rect x="266.709" y="314.813" width="133.104" height="133.104" stroke="#7C7C7C"/>
<rect x="399.812" y="314.813" width="133.104" height="133.104" stroke="#7C7C7C"/>
<rect x="532.918" y="314.813" width="133.104" height="133.104" stroke="#7C7C7C"/>
<rect x="666.023" y="314.813" width="133.104" height="133.104" stroke="#7C7C7C"/>
<rect x="799.127" y="314.813" width="133.104" height="133.104" stroke="#7C7C7C"/>
<rect x="932.23" y="314.813" width="133.104" height="133.104" stroke="#7C7C7C"/>
<rect x="1065.34" y="314.813" width="133.104" height="133.104" stroke="#7C7C7C"/>
<rect x="1198.44" y="314.813" width="133.104" height="133.104" stroke="#7C7C7C"/>
<rect x="1331.54" y="314.813" width="133.104" height="133.104" stroke="#7C7C7C"/>
<rect x="0.5" y="447.918" width="133.104" height="133.104" stroke="#7C7C7C"/>
<rect x="133.605" y="447.918" width="133.104" height="133.104" stroke="#7C7C7C"/>
<rect x="266.709" y="447.918" width="133.104" height="133.104" stroke="#7C7C7C"/>
<rect x="399.812" y="447.918" width="133.104" height="133.104" stroke="#7C7C7C"/>
<rect x="532.918" y="447.918" width="133.104" height="133.104" stroke="#7C7C7C"/>
<rect x="666.023" y="447.918" width="133.104" height="133.104" stroke="#7C7C7C"/>
<rect x="799.127" y="447.918" width="133.104" height="133.104" stroke="#7C7C7C"/>
<rect x="932.23" y="447.918" width="133.104" height="133.104" stroke="#7C7C7C"/>
<rect x="1065.34" y="447.918" width="133.104" height="133.104" stroke="#7C7C7C"/>
<rect x="1198.44" y="447.918" width="133.104" height="133.104" stroke="#7C7C7C"/>
<rect x="1331.54" y="447.918" width="133.104" height="133.104" stroke="#7C7C7C"/>
<rect x="0.5" y="581.022" width="133.104" height="133.104" stroke="#7C7C7C"/>
<rect x="133.605" y="581.022" width="133.104" height="133.104" stroke="#7C7C7C"/>
<rect x="266.709" y="581.022" width="133.104" height="133.104" fill="#B7B7B7"/>
<rect x="266.709" y="581.022" width="133.104" height="133.104" stroke="#7C7C7C"/>
<rect x="399.812" y="581.022" width="133.104" height="133.104" stroke="#7C7C7C"/>
<rect x="532.918" y="581.022" width="133.104" height="133.104" stroke="#7C7C7C"/>
<rect x="666.023" y="581.022" width="133.104" height="133.104" stroke="#7C7C7C"/>
<rect x="799.127" y="581.022" width="133.104" height="133.104" fill="white" fill-opacity="0.4"/>
<rect x="799.127" y="581.022" width="133.104" height="133.104" stroke="#7C7C7C"/>
<rect x="932.23" y="581.022" width="133.104" height="133.104" fill="#B7B7B7"/>
<rect x="932.23" y="581.022" width="133.104" height="133.104" stroke="#7C7C7C"/>
<rect x="1065.34" y="581.022" width="133.104" height="133.104" fill="#B7B7B7"/>
<rect x="1065.34" y="581.022" width="133.104" height="133.104" stroke="#7C7C7C"/>
<rect x="1198.44" y="581.022" width="133.104" height="133.104" stroke="#7C7C7C"/>
<rect x="1331.54" y="581.022" width="133.104" height="133.104" fill="white" fill-opacity="0.4"/>
<rect x="1331.54" y="581.022" width="133.104" height="133.104" stroke="#7C7C7C"/>
<rect x="0.5" y="714.127" width="133.104" height="133.104" stroke="#7C7C7C"/>
<rect x="133.605" y="714.127" width="133.104" height="133.104" stroke="#7C7C7C"/>
<rect x="266.709" y="714.127" width="133.104" height="133.104" stroke="#7C7C7C"/>
<rect x="399.812" y="714.127" width="133.104" height="133.104" stroke="#7C7C7C"/>
<rect x="532.918" y="714.127" width="133.104" height="133.104" stroke="#7C7C7C"/>
<rect x="666.023" y="714.127" width="133.104" height="133.104" fill="white" fill-opacity="0.4"/>
<rect x="666.023" y="714.127" width="133.104" height="133.104" stroke="#7C7C7C"/>
<rect x="799.127" y="714.127" width="133.104" height="133.104" fill="#B7B7B7"/>
<rect x="799.127" y="714.127" width="133.104" height="133.104" stroke="#7C7C7C"/>
<rect x="932.23" y="714.127" width="133.104" height="133.104" stroke="#7C7C7C"/>
<rect x="1065.34" y="714.127" width="133.104" height="133.104" fill="white" fill-opacity="0.4"/>
<rect x="1065.34" y="714.127" width="133.104" height="133.104" stroke="#7C7C7C"/>
<rect x="1198.44" y="714.127" width="133.104" height="133.104" fill="#B7B7B7"/>
<rect x="1198.44" y="714.127" width="133.104" height="133.104" stroke="#7C7C7C"/>
<rect x="1331.54" y="714.127" width="133.104" height="133.104" fill="#B7B7B7"/>
<rect x="1331.54" y="714.127" width="133.104" height="133.104" stroke="#7C7C7C"/>
</g>
</svg>
